/* XPM */
static char *rcp33885172084035803[] = {
/* columns rows colors chars-per-pixel */
"64 64 3 1 ",
"  c #88A5FF",
". c #8CA9FF",
"X c #90ABFF",
/* pixels */
"     .....          ......XX.......     ...............XXXXX..  ",
"  ..........            ..............     .........XXXXX.......",
"X.......XXX....             ...XX........    ...XXXXXX.......XXX",
"XXX...XXXX..........     ....XXX..XX....       ..XX............X",
"..XXX.....XXXX..............  ..XXXXXX    ...   .  ....     ....",
"....XX......XXXXXXX........  ......XX...   ..........           ",
"   ............XXXXXXXXXX.XX............XXX........   ....      ",
"     .......XXXXXXXXXX.....XXX...........XXXXX....     ......   ",
"       ...   ...XXXXX.....   .....    .......XXXX...............",
"        ....   ...XXXXX.....    .....   ....XXX...XX...   ...   ",
"      ...   .........XXX.     .....       .....    ......       ",
"    ......................  ............   ..   ......          ",
"  .....XXX....XX.....XXXX........XXX...                     ... ",
"   .XXXX....XXX...XXXXXXXXXX..XXXX...                    .......",
"    ..XXXXXXX.     .....XXXXXXXXX.         ..   ..    ......    ",
"      ..XXX.....      .........XXX..    ....  ......    ......  ",
"  ............          .....            ......   ....   ..     ",
".....XXX....      ...  ..         ..  ...........   ........   .",
"...XXXXXXX...  .....          .......   ..........    ...    ...",
"......XX...     .......         ...       ......     ......     ",
"  .XXXXXX.   .....  ....    .....XXXX...            ..........  ",
"   .XXX.      ..   ...    ....XXX..XXX.....     ...XX...  ..... ",
" ..XXX.....      ..........XXXX.......      ....XX..XXX..       ",
".XXX....  ..      ..   .......XXXX.  ..  .........XXXXXXX...  ..",
"XX.....            ...    ..XXXX.         ...........XXX......XX",
"XXX..                   .....XXXX.     .....    ........XX.....X",
".......              ...XX.XXXX.....    ......   ......XX...XXXX",
"......     ...   ......XX...XXXXX..       .    .....XXXXXXXXX...",
"  ........   .....XX..........XX.      ...........XXXX..  ..... ",
"...  ...    ....XXXXXX.....X......       .XXXX.........  ...    ",
"         .....XXXXX.......XXX....    .XX.....XXX..    ........  ",
"..     ...XXX..............XXX.   ..............   .............",
"    ..XXXXXXXXX...XXXX...XX.................     ......     ... ",
"  ......XX...........XXXXX.............             ......      ",
"..XX............XXXXXXX.......XX....          ....            ..",
"XXX..............X....  ....XXXXXX...   .............     ......",
"...XX.....    ..........   ....XXXXX........XXXX................",
"............      ...    ..   ....XXXXX.......XXX.....    ......",
"....    ...  ...       ..XXXX.......XXXXXX......XXXX.XX.....   .",
".     .........     ...  ..XXXX..XXXXX.......XXXXX.......     ..",
"   .....XXXX.......   ......XXXXXXX....... .XXXX.....   ...     ",
"     .....XXXXXX.....    .XXXXXX........     .XXX..   ...       ",
".   ..........XXXX.....XXXXXX..   .XX.    ..XXXXXX..          ..",
"..     ....XXXX.......XXX....   ....    .....XXX......      ....",
"          ......   .........              ..........      ....  ",
"     ...    ..        ........      ....     ...             ...",
"       ............      ........     ....            ....      ",
"      ...........           ...      .........    .......       ",
"..XXX.......XXXX....    ...     ..        .............         ",
"  ..XX..XXXXXX............   ........   ............            ",
"       ...XXX..XXXXX..XXX...........     .........      ...     ",
"     .......XXXXX.......XX........   ..     .......  ........   ",
"          ....      ........XXXX.  ...    ....XXX...............",
"                  ........XXXX.......   ........XXX...........  ",
"        ....          .......XXXXXX.......XXXX.....  .....      ",
"    .............        ........XXXX...XXXX........    .....   ",
".........XXX..........     ........XXXXXX.  .....XX..  ...XXXX..",
"X......XXXXXXX..XX..    ....  ....XXXX.....    ...XXX.XXXXXXXXXX",
"XX...XXXXX.....    XXX........XX.....   .....     ......XXXXX...",
"...XXX......    .....XXXXXX.......        ......       ....XXX..",
"......              ...XXX..XXX.....                        ....",
".                     ...XXXX...                           .....",
"...       ....    .........              ...      ......       .",
"        .....   ..............        .........     .......     "
};
