/* XPM */
static char *rcp45806744053643574[] = {
/* columns rows colors chars-per-pixel */
"64 64 172 2 ",
"   c #3F1C11",
".  c #421E12",
"X  c #4E1F17",
"o  c #4E2216",
"O  c #442011",
"+  c #5C271B",
"@  c #542817",
"#  c #5B3715",
"$  c #63261F",
"%  c #65291F",
"&  c #6A3B1B",
"*  c #743F1F",
"=  c #6D3C22",
"-  c #683121",
";  c #662C20",
":  c #78441F",
">  c #7A5319",
",  c #6D4916",
"<  c #7F5622",
"1  c #102F5D",
"2  c #0A345E",
"3  c #0B395F",
"4  c #15325D",
"5  c #0B3660",
"6  c #0F3D62",
"7  c #1B3765",
"8  c #1B3865",
"9  c #0C435A",
"0  c #0D485F",
"q  c #154457",
"w  c #16465A",
"e  c #14495E",
"r  c #1D4C5F",
"t  c #0D4462",
"y  c #0D4C65",
"u  c #0D4A69",
"i  c #104C64",
"p  c #1E4F62",
"a  c #104F68",
"s  c #0E526D",
"d  c #13536D",
"f  c #1F5062",
"g  c #0F5773",
"h  c #0F5875",
"j  c #115571",
"k  c #115976",
"l  c #135E7B",
"z  c #315B6C",
"x  c #2E4B70",
"c  c #315E71",
"v  c #2E4B6F",
"b  c #14617F",
"n  c #367078",
"m  c #687E58",
"M  c #435B7E",
"N  c #5A7E66",
"B  c #456C7C",
"V  c #486F7E",
"C  c #447F7C",
"Z  c #4C707F",
"A  c #85591C",
"S  c #88581D",
"D  c #8F671F",
"F  c #9D791F",
"G  c #906A1F",
"H  c #A0751E",
"J  c #A27B1B",
"K  c #835E23",
"L  c #905C20",
"P  c #8D6A21",
"I  c #916921",
"U  c #9C7D22",
"Y  c #937D2B",
"T  c #AA7622",
"R  c #A06A22",
"E  c #6D8158",
"W  c #709B72",
"Q  c #6BA078",
"!  c #AF841E",
"~  c #B4871E",
"^  c #B38622",
"/  c #AE882A",
"(  c #C89C25",
")  c #CDA22A",
"_  c #CFA022",
"`  c #D3A323",
"'  c #A19F4B",
"]  c #839D63",
"[  c #DAB655",
"{  c #D2AB45",
"}  c #E3B84F",
"|  c #D8C97C",
" . c #E7C978",
".. c #E8C66D",
"X. c #166381",
"o. c #186685",
"O. c #1A6987",
"+. c #1D6D8D",
"@. c #176A89",
"#. c #1E6F90",
"$. c #1E7394",
"%. c #1F7798",
"&. c #1F7898",
"*. c #3C7F85",
"=. c #337F8F",
"-. c #207B9C",
";. c #217FA0",
":. c #465C80",
">. c #4D6384",
",. c #4C7282",
"<. c #507685",
"1. c #38979C",
"2. c #38989E",
"3. c #328696",
"4. c #1E81A4",
"5. c #1F8AAA",
"6. c #1F92AF",
"7. c #1F96B1",
"8. c #1F9BB4",
"9. c #2180A1",
"0. c #2088A7",
"q. c #208CAA",
"w. c #2795AA",
"e. c #389CA1",
"r. c #1EA3BA",
"t. c #1EAABF",
"y. c #36BDB9",
"u. c #4B988E",
"i. c #68B58A",
"p. c #78D2B9",
"a. c #1DAFC4",
"s. c #1EB3C6",
"d. c #1DB7C9",
"f. c #1DBCCD",
"g. c #1CBFD0",
"h. c #1DC3D2",
"j. c #22C8D6",
"k. c #3AC3C4",
"l. c #1BCCE1",
"z. c #26D9EE",
"x. c #28DBEF",
"c. c #24D3E6",
"v. c #23DAF1",
"b. c #50D6D4",
"n. c #5AD3CA",
"m. c #65D4C6",
"M. c #8698AA",
"N. c #939CB3",
"B. c #87A0AA",
"V. c #94A7AF",
"C. c #95A8B0",
"Z. c #8CD0AD",
"A. c #DBDCB0",
"S. c #F5E0B3",
"D. c #F4D38E",
"F. c #ACB3C5",
"G. c #ADBCC2",
"H. c #C6CBD7",
"J. c #C7D1D5",
"K. c #D5DCDF",
"L. c #D4D7E1",
"P. c #D5DCE0",
"I. c #DDDFE7",
"U. c #DDE3E6",
"Y. c #E1E4E9",
"T. c #E6E9ED",
"R. c #EAEEEF",
"E. c #ECEEF2",
"W. c #EDF0F2",
"Q. c #8ca9ff",
"!. c #FDFDFD",
"~. c #FFFFFF",
/* pixels */
"Q.Q.Q.Q.Q.Q.Q.Q.Q.Q.Q.Q.Q.Q.Q.Q.Q.Q.Q.Q.Q.Q.Q.Q.Q.Q.Q.Q.Q.Q.Q.Q.Q.Q.Q.Q.Q.Q.Q.Q.Q.Q.Q.Q.Q.Q.Q.Q.Q.Q.Q.Q.Q.Q.Q.Q.Q.Q.Q.Q.Q.Q.Q.Q.",
"Q.Q.Q.Q.Q.Q.Q.Q.Q.Q.Q.Q.Q.Q.Q.Q.Q.Q.Q.Q.Q.Q.Q.Q.Q.Q.Q.Q.Q.Q.Q.Q.Q.Q.Q.Q.Q.Q.Q.Q.Q.Q.Q.Q.Q.Q.Q.Q.Q.Q.Q.Q.Q.Q.Q.Q.Q.Q.Q.Q.Q.Q.Q.Q.",
"Q.Q.Q.Q.Q.Q.Q.Q.Q.Q.Q.Q.Q.Q.Q.Q.Q.Q.Q.Q.Q.Q.Q.Q.Q.Q.Q.Q.Q.Q.Q.Q.Q.Q.Q.Q.Q.Q.Q.Q.Q.Q.Q.Q.Q.Q.Q.Q.Q.Q.Q.Q.Q.Q.Q.Q.Q.Q.Q.Q.Q.Q.Q.Q.",
"Q.Q.Q.Q.Q.Q.Q.Q.Q.Q.Q.Q.Q.Q.Q.Q.Q.Q.Q.Q.Q.Q.Q.Q.Q.Q.Q.Q.Q.Q.Q.Q.Q.Q.Q.Q.Q.Q.Q.Q.Q.Q.Q.Q.Q.Q.Q.Q.Q.Q.Q.Q.Q.Q.Q.Q.Q.Q.Q.Q.Q.Q.Q.Q.",
"Q.Q.Q.Q.Q.Q.Q.Q.Q.Q.Q.Q.Q.Q.Q.Q.Q.Q.Q.Q.Q.Q.Q.Q.Q.Q.Q.Q.Q.Q.Q.Q.Q.Q.Q.Q.Q.Q.Q.Q.Q.Q.Q.Q.Q.Q.Q.Q.Q.Q.Q.Q.Q.Q.Q.Q.Q.Q.Q.Q.Q.Q.Q.Q.",
"Q.Q.Q.Q.Q.Q.Q.Q.Q.Q.Q.Q.Q.Q.Q.Q.Q.Q.Q.Q.Q.Q.Q.Q.Q.Q.Q.Q.Q.Q.Q.Q.Q.Q.Q.Q.Q.Q.Q.Q.Q.Q.Q.Q.Q.Q.Q.Q.Q.Q.Q.Q.Q.Q.Q.Q.Q.Q.Q.Q.Q.Q.Q.Q.",
"Q.Q.Q.Q.Q.Q.Q.Q.Q.Q.Q.Q.Q.Q.Q.Q.Q.Q.Q.Q.Q.Q.Q.Q.Q.Q.Q.Q.Q.Q.Q.Q.Q.Q.Q.Q.Q.Q.Q.Q.Q.Q.Q.Q.Q.Q.Q.Q.Q.Q.Q.Q.Q.Q.Q.Q.Q.Q.Q.Q.Q.Q.Q.Q.",
"Q.Q.Q.Q.Q.Q.Q.Q.Q.Q.Q.Q.Q.Q.Q.Q.Q.Q.Q.Q.Q.Q.Q.Q.Q.Q.Q.!.W.W.W.W.W.W.W.W.!.Q.Q.Q.Q.Q.Q.Q.Q.Q.Q.Q.Q.Q.Q.Q.Q.Q.Q.Q.Q.Q.Q.Q.Q.Q.Q.Q.",
"Q.Q.Q.Q.Q.Q.Q.Q.Q.Q.Q.Q.Q.Q.Q.Q.Q.Q.Q.Q.Q.Q.Q.Q.Q.U.Y.B.w p f p p f p w B.Y.U.Q.Q.Q.Q.Q.Q.Q.Q.Q.Q.Q.Q.Q.Q.Q.Q.Q.Q.Q.Q.Q.Q.Q.Q.Q.",
"Q.Q.Q.Q.Q.Q.Q.Q.Q.Q.Q.Q.Q.Q.Q.Q.Q.Q.Q.Q.Q.Q.K.J.G.e w d l @.$.+.$.$.@.l d w e G.J.K.Q.Q.Q.Q.Q.Q.Q.Q.Q.Q.Q.Q.Q.Q.Q.Q.Q.Q.Q.Q.Q.Q.",
"Q.Q.Q.Q.Q.Q.Q.Q.Q.Q.Q.Q.Q.Q.Q.Q.Q.Q.Q.Q.K.G.c i i l @.%.4.0.0.0.0.9.9.-.%.X.l i i c G.K.Q.Q.Q.Q.Q.Q.Q.Q.Q.Q.Q.Q.Q.Q.Q.Q.Q.Q.Q.Q.",
"Q.Q.Q.Q.Q.Q.Q.Q.Q.Q.Q.Q.Q.Q.Q.Q.Q.Q.Y.V.B i l $.%.4.q.q.7.7.7.7.7.q.0.;.9.-.%.+.+.l i B V.Y.Q.Q.Q.Q.Q.Q.Q.Q.Q.Q.Q.Q.Q.Q.Q.Q.Q.Q.",
"Q.Q.Q.Q.Q.Q.Q.Q.Q.Q.Q.Q.Q.Q.Q.Q.Q.T.<.i l $.-.q.q.7.7.7.7.7.7.7.7.7.6.q.0.9.9.-.%.+.+.l a <.T.Q.Q.Q.Q.Q.Q.Q.Q.Q.Q.Q.Q.Q.Q.Q.Q.Q.",
"Q.Q.Q.Q.Q.Q.Q.Q.Q.Q.Q.Q.Q.Q.Q.Q.R.,.j $.-.-.q.7.7.7.7.7.7.7.7.7.7.7.7.7.6.0.9.9.9.%.+.+.@.j ,.R.Q.Q.Q.Q.Q.Q.Q.Q.Q.Q.Q.Q.Q.Q.Q.Q.",
"Q.Q.Q.Q.Q.Q.Q.Q.Q.Q.Q.Q.Q.Q.Q.W.V j $.-.9.q.7.7.7.7.7.r.d.d.d.8.7.7.7.7.7.6.0.9.9.9.%.+.+.@.j V W.Q.Q.Q.Q.Q.Q.Q.Q.Q.Q.Q.Q.Q.Q.Q.",
"Q.Q.Q.Q.Q.Q.Q.Q.Q.Q.Q.Q.Q.Q.W.B j +.;.9.q.7.7.7.7.r.f.f.h.h.h.f.d.8.7.7.7.7.6.0.9.9.9.%.+.+.@.j B W.Q.Q.Q.Q.Q.Q.Q.Q.Q.Q.Q.Q.Q.Q.",
"Q.Q.Q.Q.Q.Q.Q.Q.Q.Q.Q.Q.Q.R.V j +.;.9.q.7.7.7.7.r.f.h.h.h.h.h.h.h.d.8.7.7.7.7.6.9.9.9.9.%.+.+.@.j V E.Q.Q.Q.Q.Q.Q.Q.Q.Q.Q.Q.Q.Q.",
"Q.Q.Q.Q.Q.Q.Q.Q.Q.Q.Q.Q.T.,.j +.;.;.0.7.7.7.7.r.f.h.h.h.h.j.h.h.h.h.s.7.7.7.7.7.0.9.9.9.;.$.+.+.@.j Z T.Q.Q.Q.Q.Q.Q.Q.Q.Q.Q.Q.Q.",
"Q.Q.Q.Q.Q.Q.Q.Q.Q.Q.Q.Y.<.j $.;.9.9.q.7.7.7.7.f.h.h.h.j.c.x.v.l.h.h.d.8.7.7.7.7.6.9.9.9.9.&.+.+.+.o.0 <.Y.Q.Q.Q.Q.Q.Q.Q.Q.Q.Q.Q.",
"Q.Q.Q.Q.Q.Q.Q.Q.Q.Q.Q.C.y +.;.9.9.0.7.7.7.7.r.f.h.h.c.x.v.v.m.p.i.h.h.a.7.7.7.7.7.0.9.9.9.9.$.+.+.@.l 9 C.Q.Q.Q.Q.Q.Q.Q.Q.Q.Q.Q.",
"Q.Q.Q.Q.Q.Q.Q.Q.Q.Q.P.B d &.9.9.9.q.7.7.7.7.d.h.h.c.x.v.m.Z.| } ) i.h.a.7.7.7.7.7.6.9.9.9.9.-.+.+.+.o.y B P.Q.Q.Q.Q.Q.Q.Q.Q.Q.Q.",
"Q.Q.Q.Q.Q.Q.Q.Q.Q.Q.G.9 @.;.9.9.9.7.7.7.7.t.f.h.j.x.v.n.A.D.{ ^ ~ ) i.a.7.7.7.7.7.7.q.9.9.9.9.$.+.+.+.l 9 G.Q.Q.Q.Q.Q.Q.Q.Q.Q.Q.",
"Q.Q.Q.Q.Q.Q.Q.Q.Q.P.z d %.9.9.9.0.7.7.7.7.s.h.h.c.v.n.A.S.[ > # & ~ ) Q 7.7.7.7.7.7.q.;.9.9.9.$.+.+.+.X.y z P.Q.Q.Q.Q.Q.Q.Q.Q.Q.",
"Q.Q.Q.Q.Q.Q.Q.Q.Q.J.9 b -.9.9.9.6.7.7.7.7.s.h.h.x.x.p. .[ > O . + : ~ ( Q 7.7.7.7.7.q.;.9.9.9.$.+.+.+.+.l 9 J.Q.Q.Q.Q.Q.Q.Q.Q.Q.",
"Q.Q.Q.Q.Q.Q.Q.Q.Q.G.9 @.9.9.9.9.7.7.7.7.7.s.h.h.x.b. .[ ! # . + % % : ~ W w.7.7.7.7.q.;.9.9.9.-.+.+.+.+.X.9 G.Q.Q.Q.Q.Q.Q.Q.Q.Q.",
"Q.Q.Q.Q.Q.Q.Q.Q.U.w y +.9.9.9.9.7.7.7.7.7.s.h.h.c.b...{ , . o $ % % $ L _ u.7.7.7.7.q.9.9.9.9.;.+.+.+.+.X.y w U.Q.Q.Q.Q.Q.Q.Q.Q.",
"Q.Q.Q.Q.Q.Q.Q.Q.Y.q j %.9.9.9.9.7.7.7.7.7.t.f.h.j.Z.} ! # . + % % % $ * ~ ] w.7.7.6.9.9.9.9.9.;.+.+.+.+.+.k q Y.Q.Q.Q.Q.Q.Q.Q.Q.",
"Q.Q.Q.Q.Q.Q.Q.!.M.e X.-.9.9.9.9.7.7.7.7.7.7.d.h.k. .[ A   o $ % % % % $ R ` u.7.7.6.9.9.9.9.9.;.+.+.+.+.+.l e M.!.Q.Q.Q.Q.Q.Q.Q.",
"Q.Q.Q.Q.Q.Q.Q.W.q y X.9.9.9.9.9.q.7.7.7.7.7.r.g.y.[ [ > . + % % % % % $ I ( u.7.7.0.9.9.9.9.9.;.+.+.+.+.+.l y 4 E.Q.Q.Q.Q.Q.Q.Q.",
"Q.Q.Q.Q.Q.Q.Q.W.r j +.9.9.9.9.9.9.7.7.7.7.7.7.f.y.) / @ . + % % % % % % & ^ ' w.6.9.9.9.9.9.9.;.+.+.+.+.+.l s 7 E.Q.Q.Q.Q.Q.Q.Q.",
"Q.Q.Q.Q.Q.Q.Q.W.r l %.9.9.9.9.9.9.0.7.7.7.7.7.r.y.) H   @ $ % % % % % % $ T _ 1.4.9.9.9.9.9.9.;.+.+.+.+.+.l h 8 E.Q.Q.Q.Q.Q.Q.Q.",
"Q.Q.Q.Q.Q.Q.Q.W.r l $.9.9.9.9.9.9.0.7.7.7.7.7.7.e.) H   @ % % % % % % % $ T ( 3.9.9.9.9.9.9.9.-.+.+.+.+.+.l h 7 E.Q.Q.Q.Q.Q.Q.Q.",
"Q.Q.Q.Q.Q.Q.Q.W.r l %.9.9.9.9.9.9.9.0.7.7.7.7.7.1.) H . + % % % % % % % $ T ! =.9.9.9.9.9.9.9.$.+.+.+.+.+.l h 7 E.Q.Q.Q.Q.Q.Q.Q.",
"Q.Q.Q.Q.Q.Q.Q.W.r l $.-.9.9.9.9.9.9.9.0.6.7.7.7.1.) H o % % % % % % % % ; D U =.9.9.9.9.9.9.9.$.+.+.+.+.+.l h 8 E.Q.Q.Q.Q.Q.Q.Q.",
"Q.Q.Q.Q.Q.Q.Q.W.r k +.%.9.9.9.9.9.9.9.9.9.q.q.7.2.) H o % % % % % % % % = I U =.9.9.9.9.9.9.-.+.+.+.+.+.+.l s 7 E.Q.Q.Q.Q.Q.Q.Q.",
"Q.Q.Q.Q.Q.Q.Q.W.q y o.%.9.9.9.9.9.9.9.9.9.9.9.5.3.( H X % % % % % % % $ = I J =.9.9.9.9.9.9.$.+.+.+.+.+.O.l y 4 E.Q.Q.Q.Q.Q.Q.Q.",
"Q.Q.Q.Q.Q.Q.Q.!.M.6 l $.-.9.9.9.9.9.9.9.9.9.9.;.-.E J & % % % % % % % - < F m 9.9.9.9.9.9.9.$.+.+.+.+.+.b h 6 M.!.Q.Q.Q.Q.Q.Q.Q.",
"Q.Q.Q.Q.Q.Q.Q.Q.Y.1 k +.%.9.9.9.9.9.9.9.9.9.9.9.4.*.J A $ % % % % % % = P J *.4.9.9.9.9.9.&.+.+.+.+.+.+.X.s 1 Y.Q.Q.Q.Q.Q.Q.Q.Q.",
"Q.Q.Q.Q.Q.Q.Q.Q.I.4 d +.+.-.9.9.9.9.9.9.9.9.9.9.4.*.U A $ % % % % % % = P F *.4.9.9.9.9.9.$.+.+.+.+.+.+.X.y 4 I.Q.Q.Q.Q.Q.Q.Q.Q.",
"Q.Q.Q.Q.Q.Q.Q.Q.Q.F.5 X.+.&.9.9.9.9.9.9.9.9.9.9.9.9.N J : $ % % % % - K J N 9.9.9.9.9.9.%.+.+.+.+.+.+.o.k 5 F.Q.Q.Q.Q.Q.Q.Q.Q.Q.",
"Q.Q.Q.Q.Q.Q.Q.Q.Q.H.2 b +.+.-.9.9.9.9.9.9.9.9.9.;.;.C U S % % % % % = P U C 4.9.9.9.9.%.+.+.+.+.+.+.+.X.g 2 H.Q.Q.Q.Q.Q.Q.Q.Q.Q.",
"Q.Q.Q.Q.Q.Q.Q.Q.Q.L.v j +.+.+.-.9.9.9.9.9.9.9.9.;.;.;.N J : $ % % - K J N 4.9.9.9.9.%.+.+.+.+.+.+.+.+.X.y x L.Q.Q.Q.Q.Q.Q.Q.Q.Q.",
"Q.Q.Q.Q.Q.Q.Q.Q.Q.Q.F.2 X.+.+.+.-.9.9.9.9.9.9.9.;.;.4.C Y S % % % = D Y C 4.9.9.9.%.+.+.+.+.+.o.+.+.o.g 2 F.Q.Q.Q.Q.Q.Q.Q.Q.Q.Q.",
"Q.Q.Q.Q.Q.Q.Q.Q.Q.Q.L.M j +.+.+.+.%.-.9.9.9.9.9.;.;.9.4.Q Y S % = D Y C 4.9.9.-.%.+.+.+.+.+.o.X.+.+.b u M L.Q.Q.Q.Q.Q.Q.Q.Q.Q.Q.",
"Q.Q.Q.Q.Q.Q.Q.Q.Q.Q.Q.N.3 X.+.+.+.+.#.%.%.-.9.9.9.9.9.9.4.C Y S G Y C 4.-.%.%.+.+.+.+.+.+.o.k @.+.b g 3 N.Q.Q.Q.Q.Q.Q.Q.Q.Q.Q.Q.",
"Q.Q.Q.Q.Q.Q.Q.Q.Q.Q.Q.Y.>.u O.+.+.+.+.+.+.$.$.$.%.9.9.9.9.4.C Y Y C $.%.#.+.+.+.+.+.+.+.o.k X.+.l g t >.Y.Q.Q.Q.Q.Q.Q.Q.Q.Q.Q.Q.",
"Q.Q.Q.Q.Q.Q.Q.Q.Q.Q.Q.Q.T.>.u O.+.+.+.+.+.+.+.+.+.$.$.$.$.$.$.n n $.+.+.+.+.+.+.+.+.+.o.k X.+.l g t >.T.Q.Q.Q.Q.Q.Q.Q.Q.Q.Q.Q.Q.",
"Q.Q.Q.Q.Q.Q.Q.Q.Q.Q.Q.Q.Q.E.M u @.+.+.+.+.+.+.+.+.+.+.+.+.+.+.+.+.+.+.+.+.+.+.+.+.+.o.X.@.b k g t :.E.Q.Q.Q.Q.Q.Q.Q.Q.Q.Q.Q.Q.Q.",
"Q.Q.Q.Q.Q.Q.Q.Q.Q.Q.Q.Q.Q.Q.E.M u O.+.+.+.+.+.+.+.+.+.+.+.+.+.+.+.+.+.+.+.+.+.+.+.+.@.X.k h g t M E.Q.Q.Q.Q.Q.Q.Q.Q.Q.Q.Q.Q.Q.Q.",
"Q.Q.Q.Q.Q.Q.Q.Q.Q.Q.Q.Q.Q.Q.Q.E.:.t l @.+.+.+.+.+.+.+.+.+.+.+.+.+.+.+.+.+.+.+.+.@.X.h h h g t :.E.Q.Q.Q.Q.Q.Q.Q.Q.Q.Q.Q.Q.Q.Q.Q.",
"Q.Q.Q.Q.Q.Q.Q.Q.Q.Q.Q.Q.Q.Q.Q.Q.E.>.t g b o.o.+.+.+.+.+.+.+.+.+.+.+.+.+.@.o.o.o.k h h h g t >.E.Q.Q.Q.Q.Q.Q.Q.Q.Q.Q.Q.Q.Q.Q.Q.Q.",
"Q.Q.Q.Q.Q.Q.Q.Q.Q.Q.Q.Q.Q.Q.Q.Q.Q.T.>.3 u g h X.X.o.+.+.+.+.+.+.+.X.X.X.l h h h h h g u 3 >.T.Q.Q.Q.Q.Q.Q.Q.Q.Q.Q.Q.Q.Q.Q.Q.Q.Q.",
"Q.Q.Q.Q.Q.Q.Q.Q.Q.Q.Q.Q.Q.Q.Q.Q.Q.Q.Y.N.M 2 u g h k X.X.X.X.X.X.b h h h h h h h h u 2 M N.Y.Q.Q.Q.Q.Q.Q.Q.Q.Q.Q.Q.Q.Q.Q.Q.Q.Q.Q.",
"Q.Q.Q.Q.Q.Q.Q.Q.Q.Q.Q.Q.Q.Q.Q.Q.Q.Q.Q.Q.L.F.x 2 5 y s h h h h h h h h h h s y 5 2 x F.L.Q.Q.Q.Q.Q.Q.Q.Q.Q.Q.Q.Q.Q.Q.Q.Q.Q.Q.Q.Q.",
"Q.Q.Q.Q.Q.Q.Q.Q.Q.Q.Q.Q.Q.Q.Q.Q.Q.Q.Q.Q.Q.Q.L.H.F.4 1 6 y s h h h h s y 6 1 4 F.H.L.Q.Q.Q.Q.Q.Q.Q.Q.Q.Q.Q.Q.Q.Q.Q.Q.Q.Q.Q.Q.Q.Q.",
"Q.Q.Q.Q.Q.Q.Q.Q.Q.Q.Q.Q.Q.Q.Q.Q.Q.Q.Q.Q.Q.Q.Q.Q.Q.I.Y.M.4 7 8 7 7 8 7 4 M.Y.I.Q.Q.Q.Q.Q.Q.Q.Q.Q.Q.Q.Q.Q.Q.Q.Q.Q.Q.Q.Q.Q.Q.Q.Q.Q.",
"Q.Q.Q.Q.Q.Q.Q.Q.Q.Q.Q.Q.Q.Q.Q.Q.Q.Q.Q.Q.Q.Q.Q.Q.Q.Q.Q.!.E.E.E.E.E.E.E.E.!.Q.Q.Q.Q.Q.Q.Q.Q.Q.Q.Q.Q.Q.Q.Q.Q.Q.Q.Q.Q.Q.Q.Q.Q.Q.Q.Q.",
"Q.Q.Q.Q.Q.Q.Q.Q.Q.Q.Q.Q.Q.Q.Q.Q.Q.Q.Q.Q.Q.Q.Q.Q.Q.Q.Q.Q.Q.Q.Q.Q.Q.Q.Q.Q.Q.Q.Q.Q.Q.Q.Q.Q.Q.Q.Q.Q.Q.Q.Q.Q.Q.Q.Q.Q.Q.Q.Q.Q.Q.Q.Q.Q.",
"Q.Q.Q.Q.Q.Q.Q.Q.Q.Q.Q.Q.Q.Q.Q.Q.Q.Q.Q.Q.Q.Q.Q.Q.Q.Q.Q.Q.Q.Q.Q.Q.Q.Q.Q.Q.Q.Q.Q.Q.Q.Q.Q.Q.Q.Q.Q.Q.Q.Q.Q.Q.Q.Q.Q.Q.Q.Q.Q.Q.Q.Q.Q.Q.",
"Q.Q.Q.Q.Q.Q.Q.Q.Q.Q.Q.Q.Q.Q.Q.Q.Q.Q.Q.Q.Q.Q.Q.Q.Q.Q.Q.Q.Q.Q.Q.Q.Q.Q.Q.Q.Q.Q.Q.Q.Q.Q.Q.Q.Q.Q.Q.Q.Q.Q.Q.Q.Q.Q.Q.Q.Q.Q.Q.Q.Q.Q.Q.Q.",
"Q.Q.Q.Q.Q.Q.Q.Q.Q.Q.Q.Q.Q.Q.Q.Q.Q.Q.Q.Q.Q.Q.Q.Q.Q.Q.Q.Q.Q.Q.Q.Q.Q.Q.Q.Q.Q.Q.Q.Q.Q.Q.Q.Q.Q.Q.Q.Q.Q.Q.Q.Q.Q.Q.Q.Q.Q.Q.Q.Q.Q.Q.Q.Q.",
"Q.Q.Q.Q.Q.Q.Q.Q.Q.Q.Q.Q.Q.Q.Q.Q.Q.Q.Q.Q.Q.Q.Q.Q.Q.Q.Q.Q.Q.Q.Q.Q.Q.Q.Q.Q.Q.Q.Q.Q.Q.Q.Q.Q.Q.Q.Q.Q.Q.Q.Q.Q.Q.Q.Q.Q.Q.Q.Q.Q.Q.Q.Q.Q.",
"Q.Q.Q.Q.Q.Q.Q.Q.Q.Q.Q.Q.Q.Q.Q.Q.Q.Q.Q.Q.Q.Q.Q.Q.Q.Q.Q.Q.Q.Q.Q.Q.Q.Q.Q.Q.Q.Q.Q.Q.Q.Q.Q.Q.Q.Q.Q.Q.Q.Q.Q.Q.Q.Q.Q.Q.Q.Q.Q.Q.Q.Q.Q.Q.",
"Q.Q.Q.Q.Q.Q.Q.Q.Q.Q.Q.Q.Q.Q.Q.Q.Q.Q.Q.Q.Q.Q.Q.Q.Q.Q.Q.Q.Q.Q.Q.Q.Q.Q.Q.Q.Q.Q.Q.Q.Q.Q.Q.Q.Q.Q.Q.Q.Q.Q.Q.Q.Q.Q.Q.Q.Q.Q.Q.Q.Q.Q.Q.Q."
};
