/* XPM */
static char *rcp38883820084010349[] = {
/* columns rows colors chars-per-pixel */
"64 64 9 1 ",
"  c #0B3A4D",
". c #082054",
"X c #0D485F",
"o c #0F5875",
"O c #1D6D8D",
"+ c #1F96B1",
"@ c #2180A1",
"# c #1DC2D1",
"$ c None",
/* pixels */
"$$$$$$$$$$$$$$$$$$$$$$$$$$$$$$$$$$$$$$$$$$$$$$$$$$$$$$$$$$$$$$$$",
"$$$$$$$$$$$$$$$$$$$$$$$$$$$$$$$$$$$$$$$$$$$$$$$$$$$$$$$$$$$$$$$$",
"$$$$$$$$$$$$$$$$$$$$$$$$$$$$$$$$$$$$$$$$$$$$$$$$$$$$$$$$$$$$$$$$",
"$$$$$$$$$$$$$$$$$$$$$$$$$$$$$$$$$$$$$$$$$$$$$$$$$$$$$$$$$$$$$$$$",
"$$$$$$$$$$$$$$$$$$$$$$$$$$$$$$$$$$$$$$$$$$$$$$$$$$$$$$$$$$$$$$$$",
"$$$$$$$$$$$$$$$$$$$$$$$$$$$$$$$$$$$$$$$$$$$$$$$$$$$$$$$$$$$$$$$$",
"$$$$$$$$$$$$$$$$$$$$$$$$$$$$$$$$$$$$$$$$$$$$$$$$$$$$$$$$$$$$$$$$",
"$$$$$$$$$$$$$$$$$$$$$$$$$$$OOOOOOOOOO$$$$$$$$$$$$$$$$$$$$$$$$$$$",
"$$$$$$$$$$$$$$$$$$$$$$$$OOO@@++++++@@OOO$$$$$$$$$$$$$$$$$$$$$$$$",
"$$$$$$$$$$$$$$$$$$$$$$OO@@++++++++++++@@OO$$$$$$$$$$$$$$$$$$$$$$",
"$$$$$$$$$$$$$$$$$$$$OO@+++++++++++++++++@@OO$$$$$$$$$$$$$$$$$$$$",
"$$$$$$$$$$$$$$$$$$OO@++++++++++++++++++++@@@OO$$$$$$$$$$$$$$$$$$",
"$$$$$$$$$$$$$$$$$O@+++++++++++++++++++++++@@@@O$$$$$$$$$$$$$$$$$",
"$$$$$$$$$$$$$$$$O@+++++++++++++++++++++++++@@@@O$$$$$$$$$$$$$$$$",
"$$$$$$$$$$$$$$$O@+++++++###++++++++++++++++@@@O@X$$$$$$$$$$$$$$$",
"$$$$$$$$$$$$$$O@++++++#######+++++++++++++++@@@O@X$$$$$$$$$$$$$$",
"$$$$$$$$$$$$$O@+++++##########++++++++++++++@@@OO@X$$$$$$$$$$$$$",
"$$$$$$$$$$$$O@+++++###########++++++++++++++@@@@OO@X$$$$$$$$$$$$",
"$$$$$$$$$$$O@+++++############++++++++++++++@@@@OOO@X$$$$$$$$$$$",
"$$$$$$$$$$$O+++++############+++++++++++++++@@@@OOOO $$$$$$$$$$$",
"$$$$$$$$$$O@+++++###########+++++++++++++++@@@@@@OOOO $$$$$$$$$$",
"$$$$$$$$$$O++++++##########++++++++++++++++@@@@@@OOOO $$$$$$$$$$",
"$$$$$$$$$O@+++++++#######+++++++++++++++++@@@@@@@OOOOo $$$$$$$$$",
"$$$$$$$$$O++++++++++###+++++++++++++++++++@@@@@@@OOOOO $$$$$$$$$",
"$$$$$$$$O@+++++++++++++++++++++++++++++++@@@@@@@@@OOOOo $$$$$$$$",
"$$$$$$$$O@++++++++++++++++++++++++++++++@@@@@@@@@@OOOOo $$$$$$$$",
"$$$$$$$$O++++++++++++++++++++++++++++++@@@@@@@@@@@OOOOO $$$$$$$$",
"$$$$$$$O@+++++++++++++++++++++++++++++@@@@@@@@@@@@OOOOOo $$$$$$$",
"$$$$$$$O@++++++++++++++++++++++++++++@@@@@@@@@@@@@OOOOOo $$$$$$$",
"$$$$$$$O@@++++++++++++++++++++++++++@@@@@@@@@@@@@@OOOOOO $$$$$$$",
"$$$$$$$O@@+++++++++++++++++++++++++@@@@@@@@@@@@@@@OOOOOO $$$$$$$",
"$$$$$$$O@@@++++++++++++++++++++++@@@@@@@@@@@@@@@@@OOOOOO $$$$$$$",
"$$$$$$$o@@@@+++++++++++++++++++@@@@@@@@@@@@@@@@@@OOOOOOO $$$$$$$",
"$$$$$$$o@@@@@@++++++++++++++@@@@@@@@@@@@@@@@@@@@@OOOOOOO $$$$$$$",
"$$$$$$$oO@@@@@@@@+++++++@@@@@@@@@@@@@@@@@@@@@@@@OOOOOOOO $$$$$$$",
"$$$$$$$ oO@@@@@@@@@@@@@@@@@@@@@@@@@@@@@@@@@@@@@@OOOOOOOo.$$$$$$$",
"$$$$$$$   oO@@@@@@@@@@@@@@@@@@@@@@@@@@@@@@@@@@@OOOOOoX.. $$$$$$$",
"$$$$$$$$ X  oO@@@@@@@@@@@@@@@@@@@@@@@@@@@@@@@@OOOOoX.. .$$$$$$$$",
"$$$$$$$$ XXX   oO@@@@@@@@@@@@@@@@@@@@@@@@@@@OOOoX...   .$$$$$$$$",
"$$$$$$$$ XXXXXX   oO@@@@@@@@@@@@@@@@@@@@@OOOoX... XXX  .$$$$$$$$",
"$$$$$$$$$ XXXXXXXX    XooOOOOOOOOOOOOOOooX.... XXXXXX .$$$$$$$$$",
"$$$$$$$$$ XXXXXXXXXXXX        ............ XXXXXXXXXX .$$$$$$$$$",
"$$$$$$$$$$ XXXXXoooXXXXXXX            XXXXXXXoooXXXXX.$$$$$$$$$$",
"$$$$$$$$$$ XXXXXoooooooXXXXXXXXXXXXXXXXXXoooooooXXXX .$$$$$$$$$$",
"$$$$$$$$$$$ XXXXXooooooooooooooooooooooooooooooXXXXX.$$$$$$$$$$$",
"$$$$$$$$$$$ XXXXXXooooooooooooooooooooooooooooXXXXX .$$$$$$$$$$$",
"$$$$$$$$$$$$ XXXXXXooooooooooooooooooooooooooXXXXX .$$$$$$$$$$$$",
"$$$$$$$$$$$$$ XXXXXXooooooooooooooooooooooooXXXXX .$$$$$$$$$$$$$",
"$$$$$$$$$$$$$$ XXXXXXooooooooooooooooooooooXXXX  .$$$$$$$$$$$$$$",
"$$$$$$$$$$$$$$$ XXXXXXXooooooooooooooooooXXXX   .$$$$$$$$$$$$$$$",
"$$$$$$$$$$$$$$$$. XXXXXXXooooooooooooooXXXX    .$$$$$$$$$$$$$$$$",
"$$$$$$$$$$$$$$$$$. XXXXXXXXXooooooooXXXXX     .$$$$$$$$$$$$$$$$$",
"$$$$$$$$$$$$$$$$$$.. XXXXXXXXXXXXXXXXX      ..$$$$$$$$$$$$$$$$$$",
"$$$$$$$$$$$$$$$$$$$$..  XXXXXXXXXX        ..$$$$$$$$$$$$$$$$$$$$",
"$$$$$$$$$$$$$$$$$$$$$$..                ..$$$$$$$$$$$$$$$$$$$$$$",
"$$$$$$$$$$$$$$$$$$$$$$$$...          ...$$$$$$$$$$$$$$$$$$$$$$$$",
"$$$$$$$$$$$$$$$$$$$$$$$$$$$..........$$$$$$$$$$$$$$$$$$$$$$$$$$$",
"$$$$$$$$$$$$$$$$$$$$$$$$$$$$$$$$$$$$$$$$$$$$$$$$$$$$$$$$$$$$$$$$",
"$$$$$$$$$$$$$$$$$$$$$$$$$$$$$$$$$$$$$$$$$$$$$$$$$$$$$$$$$$$$$$$$",
"$$$$$$$$$$$$$$$$$$$$$$$$$$$$$$$$$$$$$$$$$$$$$$$$$$$$$$$$$$$$$$$$",
"$$$$$$$$$$$$$$$$$$$$$$$$$$$$$$$$$$$$$$$$$$$$$$$$$$$$$$$$$$$$$$$$",
"$$$$$$$$$$$$$$$$$$$$$$$$$$$$$$$$$$$$$$$$$$$$$$$$$$$$$$$$$$$$$$$$",
"$$$$$$$$$$$$$$$$$$$$$$$$$$$$$$$$$$$$$$$$$$$$$$$$$$$$$$$$$$$$$$$$",
"$$$$$$$$$$$$$$$$$$$$$$$$$$$$$$$$$$$$$$$$$$$$$$$$$$$$$$$$$$$$$$$$"
};
