/* XPM */
static char *rcp42207668084024699[] = {
/* columns rows colors chars-per-pixel */
"64 64 17 1 ",
"  c #1D2C26",
". c #83500E",
"X c #915B15",
"o c #B67826",
"O c #BF841B",
"+ c #D8951A",
"@ c #FBA70C",
"# c #FFC908",
"$ c #D2A44D",
"% c #358AA8",
"& c #429BBA",
"* c #7EA8BD",
"= c #DEBD85",
"- c #EECF9B",
"; c #FCE5BC",
": c gray98",
"> c None",
/* pixels */
">>>>>>>>>>>>>>>>>>>>>>>>>>>>>>>>>>>>>>>>>>>>>>>>>>>>>>>>>>>>>>>>",
">>>>>>>>>>>>>>>>>>>>>>>>>>>>>>>>>>>>>>>>>>>>>>>>>>>>>>>>>>>>>>>>",
">>>>>>>>>>>>>>>>>>>>>>>>>>>>>>>>>>>>>>>>>>>>>>>>>>>>>>>>>>>>>>>>",
">>>>>>>>>>>>>>>>>>>>>>>>>>>>>>>>>>>>>>>>>>>>>>>>>>>>>>>>>>>>>>>>",
">>>>>>>>>>>>>>>>>>>>>>>>>>>>>>>>>>>>>>>>>>>>>>>>>>>>>>>>>>>>>>>>",
">>>>>>>>>>>>>>>>>>>>>>>>>>>>>>>>>>>>>>>>>>>>>>>>>>>>>>>>>>>>>>>>",
">>>>>>>>>>>>>>>>>>>>>>>>>>>>>>>>>>>>>>>>>>>>>>>>>>>>>>>>>>>>>>>>",
">>>>>>>>>>>>>>>>>>>>>>>>>>>>@@>>>>@>>>>@>>>>>>>>>>>>>>>>>>>>>>>>",
">>>>>>>>>>>>>>>>>>>>>>>>>>>>>XXOOXXXX>>>@>>>>>>>>>>>>>>>>>>>>>>>",
">>>>>>>>>>>>>>>>>>>>>>>@>>++X+OO+++OOXXX@@>>>>>>>>>>>>>>>>>>>>>>",
">>>>>>>>>>>>>>>>>>>>>>>>XX@##@##@@+++O+OXX>>>>>>>>>>>>>&&&>>>>>>",
">>>>>>>>>>>>>>>>>>>>>>++@@##@#####@@++O++OXX>+>>>>>>>>&***&>>>>>",
">>>>>>>>>>>>>>>>>>>>>X@#########@##@@+++++++XX>>>>>>>&*&*&*>>>>>",
">>>>>>>>>>>>>>>>>>>@X@###########@@@@+++++@@+OXXO>>>&***&**&>>>>",
">>>>>>>>>>>>>>>>>>>X@@############@@+@+++++@O++OX>>>&&*&&*&&>>>>",
">>>>>>>>>>>>>>>>>@XX@#@##@@#@####@@++++++O++@+OOOX>&*&&*&&*%>>>>",
">>>>>>>>>>>>>>>>>XOO@@#@##@@####@@++OO+O++O++OOOOOX&&**&*&&%>>>>",
">>>>>>>>>>>>>>>>XO+OO@@@@@@###@@@@@++OO++@++++OOOO&&*&**&&%>>>>>",
">>>>>>>>>>>>>+>X++O+OO@@@@#@@@@@+@++O++@@++OOO+OOO&*&**&&%%>>>>>",
">>>>>>>>>>>>>>XO+++++OO@@@@@@@++++@+++++@@++OOOOOO%&*&&&%%>>>>>>",
">>>>>>>>>>>>>XO+++++OO+O++@@++++++++::::    oOOOOO&%%&&%&%>>>>>>",
">>>>>>>>>>>>>X+@OO++++O+O@++@++@++++::::    OOO++O%%&%%%%>>>>>>>",
">>>>>>>>>>>+XO++@++++++++O+++@@O++++::::    OO+O++O%%%%%oo>>>>>>",
">>>>>>>>>>>>XOO++++@O+++++++O@O++++O::::    OOOOOOOO%%OoX>>>>>>>",
">>>>>>>>>>>XOOOO    ::::+++++O++++++++OOOoOOOOOOOOOOOOoo.>>>>>>>",
">>>>>>>>>>>XOOOO    ::::+++++++++++++OOOoooOOOoOO+OOOooX.>>>>>>>",
">>>&&>>>>>XO++OO    ::::++O+OO++++++OOOoOoOOOOOO+OOOoOooX.>>>>>>",
">>&&*&>>>+X++++O    ::::O++OO+++@@OOOOOOOOOOOOOOOOOOoooOX.O>>>>>",
">&****&>>>XO+ooOoOOOOOOOOOOOOOOo@oOOOO+OOOOOOOOOOOOo+o+oXX.>>>>>",
"&*&****&>XOOOOooOOOOOOOOoOOOOOoooOOOO+o++OO+oOO+OOOo++OooX.>>>>>",
"&**&*&**>XoOOoOOOOOO+OOOO++OOOOoOOOOOO++++OOOOOO++Ooo+oooX.>>>>>",
"&&**&***%XOoOOOOOOO+oOOO++oO+------+OOOO+OOOOOO+o+OoOoooooX.O>>>",
"%&&&&&*&%.OOOO+OOOOOOOOOOO+--      --+O+OOOo+OOOOOOOoOooooX.>>>>",
">%&&%&&*&%OOO+ooOOOOOOOOO+-          -+OOO++OO$----$OOoooo..>>>>",
">>%%&%&&%%OoOO++oOOOOOOOO-            ++OOOO$----;;---$oooX.>>>>",
">>>%%&%%&%oOOOOo+oOOO+OOO-            $+$$------;;-;;;--$oX.O>>>",
">>>>%%%&%%OOOOOOOOOOOOoOo-$          $$$---$--;--;;-;--$-$X.>>>>",
">>>>>>%%%OoOOOOOOOOOOOOoo--$$      $$$-;;;;--;;;--;;-$$---.>>>>>",
">>>>>>>>>.OOO+oOOOoOOOoo$$---$$$$$$;;;;;--;;;;;;;;;---$$--.>>>>>",
">>>>>>>>>.oO+oOOOoOoo$$;;;--;-;--;--;;;-;;;-;;;;;;---$--$$.>>>>>",
">>>>>>>>>o.oOOOOOO$---;;;--;;;--;;;--;;;---;;-;;-;;------.O>>>>>",
">>>>>>>>>>.ooOOO$-;--;--;;;-;;;---;;--;;;;--;;;;;--;-$---.>>>>>>",
">>>>>>>>>>>.oo$----;;;;;-;;;;;-;-;;--;-;;;;;-;;-----$$$-.>>>>>>>",
">>>>>>>>>>>.$-;;--;;;;;;;;;;;;;;;-;;;-;;;;;;;;;;-$----$$.>>>>>>>",
">>>>>>>>>>>o.;;;;--;;;-;;;;;;-;;--;;;;;;--;;;;-;;-$----.O>>>>>>>",
">>>>>>>>>>>>.;;;-;;;;;;-;;;;-;;;-;-;;;---;;;-;;--$$$---.>>>>>>>>",
">>>>>>>>>>>>>.;-;;;-;;;;;-;--;;;;-;;;-;-;;;;;--$$--$$$.>>>>>>>>>",
">>>>>>>>>>>>>.--;;---;;;-;--;-;;;--;;;;;-;;;--$$----$-.>>>>>>>>>",
">>>>>>>>>>>>>=.-;--;;-;;;;;--;;;-;-;;;;;;-;--$--$$---.$>>>>>>>>>",
">>>>>>>>>>>>>>>.-;;;;;-;;;;-;;;;;;;-;;;----;---$$-$-.>>>>>>>>>>>",
">>>>>>>>>>>>>>>>$-;---;;;;;--;;;-;;;;--$-----------.>>>>>>>>>>>>",
">>>>>>>>>>>>>>>>>$--$-;;-;-;--;;;-;;-;-$$-----$---.>>>>>>>>>>>>>",
">>>>>>>>>>>>>>>>>=.$-;-;;-;-$--;-$$---$$--$$---$-.$>>>>>>>>>>>>>",
">>>>>>>>>>>>>>>>>==.--;;----$$;-$$-$--$---$-$--$.$>>>>>>>>>>>>>>",
">>>>>>>>>>>>>>>>=>>>$---;--$-$----$--$-----$--..>>>>>>>>>>>>>>>>",
">>>>>>>>>>>>>>>>>>>>>$--$-----$---$---------..>>>>>>>>>>>>>>>>>>",
">>>>>>>>>>>>>>>>>>>>>=$$-----$-$---$--$---..$>>>>>>>>>>>>>>>>>>>",
">>>>>>>>>>>>>>>>>>>>>>=>..--$$$----$----..>>>>>>>>>>>>>>>>>>>>>>",
">>>>>>>>>>>>>>>>>>>>>=>>>>$..$-------$$.$>>>>>>>>>>>>>>>>>>>>>>>",
">>>>>>>>>>>>>>>>>>>>>>>>>>>>>.$$....$>>$>>>>>>>>>>>>>>>>>>>>>>>>",
">>>>>>>>>>>>>>>>>>>>>>>>>>>>>$>>>$>>>>>>>>>>>>>>>>>>>>>>>>>>>>>>",
">>>>>>>>>>>>>>>>>>>>>>>>>>>>>>>>>>>>>>>>>>>>>>>>>>>>>>>>>>>>>>>>",
">>>>>>>>>>>>>>>>>>>>>>>>>>>>>>>>>>>>>>>>>>>>>>>>>>>>>>>>>>>>>>>>",
">>>>>>>>>>>>>>>>>>>>>>>>>>>>>>>>>>>>>>>>>>>>>>>>>>>>>>>>>>>>>>>>"
};
