/* XPM */
static char *rcp79524008051957669[] = {
/* columns rows colors chars-per-pixel */
"64 64 249 2 ",
"   c #1B291D",
".  c #28260A",
"X  c #362705",
"o  c #282918",
"O  c #332D14",
"+  c #393103",
"@  c #192A26",
"#  c #1A322D",
"$  c #1E2B34",
"%  c #252B25",
"&  c #243430",
"*  c #131D14",
"=  c #443000",
"-  c #78551D",
";  c #6F4916",
":  c #6C5326",
">  c #72552B",
",  c #785826",
"<  c #785A35",
"1  c #695230",
"2  c #7A6335",
"3  c #5E715D",
"4  c #8A5806",
"5  c #8A5919",
"6  c #8F590F",
"7  c #926608",
"8  c #896417",
"9  c #95631A",
"0  c #B97A0A",
"q  c #BB7C14",
"w  c #B57B1B",
"e  c #BB7E1B",
"r  c #B47815",
"t  c #AE7118",
"y  c #885B25",
"u  c #8C6629",
"i  c #956825",
"p  c #886535",
"a  c #9C7C36",
"s  c #AB7929",
"d  c #B37C24",
"f  c #BB7C23",
"g  c #B37B2B",
"h  c #B67727",
"j  c #AA7B32",
"k  c #B57C32",
"l  c #A05D0E",
"z  c #C37D06",
"x  c #C37E15",
"c  c #C07F19",
"v  c #C27E26",
"b  c #9D7A46",
"n  c #897652",
"m  c #558276",
"M  c #6E8776",
"N  c #6C825C",
"B  c #BE8315",
"V  c #BC841C",
"C  c #BA8719",
"Z  c #B78313",
"A  c #BC8422",
"S  c #BD8824",
"D  c #B3832B",
"F  c #BB852A",
"G  c #B9882A",
"H  c #AA8536",
"J  c #B48333",
"K  c #B88737",
"L  c #B59032",
"P  c #C4830C",
"I  c #C88303",
"U  c #D68D0C",
"Y  c #DC930C",
"T  c #DC9508",
"R  c #C38415",
"E  c #C48816",
"W  c #C3841B",
"Q  c #C38A1C",
"!  c #CB8819",
"~  c #D58C1A",
"^  c #D49415",
"/  c #DB9414",
"(  c #D5931C",
")  c #DA941B",
"_  c #DC9A1C",
"`  c #D79818",
"'  c #E5990A",
"]  c #E19818",
"[  c #EBA906",
"{  c #F5AA01",
"}  c #F8A908",
"|  c #EBB304",
" . c #EAA616",
".. c #F4AA14",
"X. c #F3A81A",
"o. c #FEB917",
"O. c #C38322",
"+. c #C58A23",
"@. c #CB8C22",
"#. c #C5862A",
"$. c #CD9325",
"%. c #C9962C",
"&. c #D39423",
"*. c #D2932C",
"=. c #D99A2B",
"-. c #D99725",
";. c #CC9333",
":. c #C9963A",
">. c #D49432",
",. c #D69B35",
"<. c #CA8B2B",
"1. c #E59B24",
"2. c #D6A830",
"3. c #EBA728",
"4. c #F3AA26",
"5. c #E8AB32",
"6. c #F7B227",
"7. c #FDC305",
"8. c #FFC40C",
"9. c #FFCA0C",
"0. c #FFC414",
"q. c #FEC817",
"w. c #FFD013",
"e. c #FDC628",
"r. c #A78A46",
"t. c #B88744",
"y. c #BD9D52",
"u. c #928666",
"i. c #AA936E",
"p. c #B8A678",
"a. c #BBA56C",
"s. c #989764",
"d. c #C69746",
"f. c #C69D59",
"g. c #CF984C",
"h. c #D8A949",
"j. c #C9A35D",
"k. c #D3A759",
"l. c #CDA94D",
"z. c #CBA563",
"x. c #C4A46C",
"c. c #CCA56B",
"v. c #CDA96C",
"b. c #C7A765",
"n. c #D1AB6B",
"m. c #C5AA75",
"M. c #D1B472",
"N. c #D4A656",
"B. c #F1C87D",
"V. c #4B7D8A",
"C. c #348A9D",
"Z. c #3688A5",
"A. c #3991B3",
"S. c #57868A",
"D. c #488298",
"F. c #558B90",
"G. c #678C99",
"H. c #65949E",
"J. c #498BA6",
"K. c #598DAA",
"L. c #4995AA",
"P. c #5594A9",
"I. c #4C94B3",
"U. c #4798B9",
"Y. c #5398B5",
"T. c #458FB2",
"R. c #658DA4",
"E. c #6694A6",
"W. c #619DB9",
"Q. c #44A1BE",
"!. c #74A9BB",
"~. c #6EA8BD",
"^. c #55A8CB",
"/. c #6AABC5",
"(. c #72ADC3",
"). c #79ADC5",
"_. c #6AB2CB",
"`. c #77B3CB",
"'. c #6BB5D3",
"]. c #AD9A84",
"[. c #B9AA8B",
"{. c #83A9B4",
"}. c #C3AD88",
"|. c #CEB799",
" X c #D2B688",
".X c #C6BEAB",
"XX c #DCC49A",
"oX c #EDCC8C",
"OX c #E9C68A",
"+X c #F3CC8C",
"@X c #FCCE8C",
"#X c #F4CB86",
"$X c #F3D28E",
"%X c #FBD28C",
"&X c #ECCC93",
"*X c #E5CB9C",
"=X c #ECCC9C",
"-X c #E6C994",
";X c #F3CD93",
":X c #F3CE9B",
">X c #FBCE94",
",X c #EED194",
"<X c #ECD19C",
"1X c #E6D09D",
"2X c #F3D294",
"3X c #FBD392",
"4X c #F3D29A",
"5X c #FAD49C",
"6X c #FDDB9C",
"7X c #EFD28F",
"8X c #D6C9B6",
"9X c #E5CDA4",
"0X c #ECCDA3",
"qX c #E8CDA9",
"wX c #F2CEA3",
"eX c #ECD1A3",
"rX c #ECD3AA",
"tX c #E6D1A7",
"yX c #F2D3A3",
"uX c #FDDDAC",
"iX c #F8DAA7",
"pX c #F6DEB3",
"aX c #FCDEB2",
"sX c #FCDEBA",
"dX c #F5DDB9",
"fX c #EAD6B5",
"gX c #FEE1A5",
"hX c #FEE4AD",
"jX c #F9E6AD",
"kX c #FEE3B4",
"lX c #FFE9B5",
"zX c #F6E2BB",
"xX c #FDE4BB",
"cX c #FEEABC",
"vX c #F6E4B5",
"bX c #FEF4BC",
"nX c #EEE1AC",
"mX c #F8E19E",
"MX c #FDE5C3",
"NX c #FEEAC2",
"BX c #FBE9C4",
"VX c #FFF6C9",
"CX c #FFF4D5",
"ZX c #FFF9D9",
"AX c #EFE6D8",
"SX c #8ca9ff",
"DX c #F4FCF6",
"FX c #F6F9E8",
"GX c #DAD4C2",
/* pixels */
"SXSXSXSXSXSXSXSXSXSXSXSXSXSXSXSXSXSXSXSXSXSXSXSXSXSXSXSXSXSXSXSXSXSXSXSXSXSXSXSXSXSXSXSXSXSXSXSXSXSXSXSXSXSXSXSXSXSXSXSXSXSXSXSX",
"SXSXSXSXSXSXSXSXSXSXSXSXSXSXSXSXSXSXSXSXSXSXSXSXSXSXSXSXSXSXSXSXSXSXSXSXSXSXSXSXSXSXSXSXSXSXSXSXSXSXSXSXSXSXSXSXSXSXSXSXSXSXSXSX",
"SXSXSXSXSXSXSXSXSXSXSXSXSXSXSXSXSXSXSXSXSXSXSXSXSXSXSXSXSXSXSXSXSXSXSXSXSXSXSXSXSXSXSXSXSXSXSXSXSXSXSXSXSXSXSXSXSXSXSXSXSXSXSXSX",
"SXSXSXSXSXSXSXSXSXSXSXSXSXSXSXSXSXSXSXSXSXSXSXSXSXSXSXSXSXSXSXSXSXSXSXSXSXSXSXSXSXSXSXSXSXSXSXSXSXSXSXSXSXSXSXSXSXSXSXSXSXSXSXSX",
"SXSXSXSXSXSXSXSXSXSXSXSXSXSXSXSXSXSXSXSXSXSXSXSXSXSXSXSXSXSXSXSXSXSXSXSXSXSXSXSXSXSXSXSXSXSXSXSXSXSXSXSXSXSXSXSXSXSXSXSXSXSXSXSX",
"SXSXSXSXSXSXSXSXSXSXSXSXSXSXSXSXSXSXSXSXSXSXSXSXSXSXSXSXSXSXSXSXSXSXSXSXSXSXSXSXSXSXSXSXSXSXSXSXSXSXSXSXSXSXSXSXSXSXSXSXSXSXSXSX",
"SXSXSXSXSXSXSXSXSXSXSXSXSXSXSXSXSXSXSXSXSXSXSXSXSXSXSXSXSXSXSXSXSXSXSXSXSXSXSXSXSXSXSXSXSXSXSXSXSXSXSXSXSXSXSXSXSXSXSXSXSXSXSXSX",
"SXSXSXSXSXSXSXSXSXSXSXSXSXSXSXSXSXSXSXSXSXSXSXSXSXSXSXSXm.x.SXSXSXSXm.SXSXSXSX|.SXSXSXSXSXSXSXSXSXSXSXSXSXSXSXSXSXSXSXSXSXSXSXSX",
"SXSXSXSXSXSXSXSXSXSXSXSXSXSXSXSXSXSXSXSXSXSXSXSXSXSXSXSXSXi i t.d.9 8 u p SXSXSXM.SXSXSXSXSXSXSXSXSXSXSXSXSXSXSXSXSXSXSXSXSXSXSX",
"SXSXSXSXSXSXSXSXSXSXSXSXSXSXSXSXSXSXSXSXSXSXSX|.SXSXy.y.7 ,.R z ( =.%.D K i u 8 h.M.SXSXSXSXSXSXSXSXSXSXSXSXSXSXSXSXSXSXSXSXSXSX",
"SXSXSXSXSXSXSXSXSXSXSXSXSXSXSXSXSXSXSXSXSXSXSXSXi 7 2.e.e.[ q.e... ./ -.$.A %.C 7 i SXSXSXSXSXSXSXSXSXSXSXSXSXR.R.E.SXSXSXSXSXSX",
"SXSXSXSXSXSXSXSXSXSXSXSXSXSXSXSXSXSXSXSXSXSXc.:.5. .q.9.| 8.9.9.q.o...4.^ ` I ` *.F i b SX8XSXSXSXSXSXSXSXSXR.`.(.).G.SXSXSXSXSX",
"SXSXSXSXSXSXSXSXSXSXSXSXSXSXSXSXSXSXSXSXSX9 5.e.0.9.8.w.7.w.7.7.{ 0.o...6./ / ) =.*.*.:.9 u SXSXSXSXSXSXSXR.).J./.P.!.SXSXSXSXSX",
"SXSXSXSXSXSXSXSXSXSXSXSXSXSXSXSXSXSXSX X4 5.o.9.7.9.7.7.9.7.8.w.7.{ { }  .U ] ) ( -.3.5.$.G y p p.SXSXSXG.).(.`.Y./.!.G.SXSXSXSX",
"SXSXSXSXSXSXSXSXSXSXSXSXSXSXSXSXSXSXSX8 2.| q.8.8.0.8.w.7.9.7.8.q.0.o...Y 4.) ) ~ ] Y X.I =.%.K , SXSXSXE.K./.Y.T.'.I.K.SXSXSXSX",
"SXSXSXSXSXSXSXSXSXSXSXSXSXSXSXSXSXm.u 4  .q.[ 0.q.{ [ 8.| 9.9.9.0.} [ T ] / ^ ) ] z ' ' 4.^ C A K < SXH.(.P.P.(.I.I._.D.SXSXSXSX",
"SXSXSXSXSXSXSXSXSXSXSXSXSXSXSXSXSX8 k W 4...e...o.q.[ [ w.9.7.0.{ } T Y P z &.R 1.U I Y ` P B V #.r.3 E.P._.~.P.'.Y.J.F.SXSXSXSX",
"SXSXSXSXSXSXSXSXSXSXSXSXSXSXSXSX8 D ,.x z X. ...{ { [ e.0.0.{ } [ o.X.Y -.z ! ^ / 3./ _ ) ( W W R r.M J._.Y.(.`.T.Y.D.SXSXSXSXSX",
"SXSXSXSXSXSXSXSXSXSXSXSXSX.XSXu :.,.x -.I U 4.X.} { o.} o.} } ..'  .] ] I ] U 4. .' ^ I P R *.A O.r.F.'.I._._.T.^.Z.V.SXSXSXSXSX",
"SXSXSXSXSXSXSXSXSXSXSXSXSXSX5 g *.-.( ( _ z I X.} } } } ' ..' Y / ) 3.( >.;.;.,.h.h.:.:.V B W V V r.F.A._.I.I.U.A.J.SXSXSXSXSXSX",
"SXSXSXSXSXSXSXSXSXSXSXSXSXp #.-.&.-.( ( P E ^ I T T  ...' Y / ^ ` ^ 1.<.VXCXZXCX. . . X K B E R q r.S.C.L.L.Y.J.I.D.SXSXSXSXSXSX",
"SXSXSXSXSXSXSXSXSXSXSXSXSX5 ,.1.U z ` ( ! =.P _ I  .Y T 3._ ^ 5.^ _ ) g.CXSXSXSX$ & # . H W E ( *.H N m L.Z.D.V.S.SXSXSXSXSXSXSX",
"SXSXSXSXSXSXSXSXSXSXSX[.5 G $.1.3.] / _ -.( ~ ) ) I ] U _ 3.5.P ^ ^ ) :.ZXDXDXDX@ @ # . K W &.E &.:.H 3 V.Z.S.3 u.n SXSXSXSXSXSX",
"SXSXSXSXSXSXSXSXSXSXSXSX9 V E $.%.;.;.h.D :.g.;.-.) U 1.z 3.P ^ ) ` ) A bXZXCXZX. O . X K W V Q R B G r.M m M u.2 SXSXSXSXSXSXSX",
"SXSXSXSXSXSXSXSXSXSXSXp F O.V D X O X X ZXZXZXVX:.( ) ] ) z ) / / ) ^ =.:.d.J J J J J K A O.A S A V S D H r.b b : SXSXSXSXSXSXSX",
"SXSXSXSXSXSXSXSXSXSXSX5 #.x V H . @ %   DXDXSXZXd.&.) 1.-.~ ] Y / 1.( ( =.q +.B q 0 x x W A f F S %.C V O.w h 5 - SXSXSXSXSXSXSX",
"SXSXSXR.R.SXSXSXSXSX- D @.=.R H O @ o o DXDXSXCX:.-.~ ~ x ! / ' / ^ &.*.W W A w O.q ! x O.A A A %.%.B W r #.f h 9 - SXSXSXSXSXSX",
"SXSXR.K.`.E.SXSXSXi.i :.=.=.Q K X . X X ZXZXZXVXG &.@.@.Q @.-.) 5.5.R Q B W V A O.q W R W V V V C Z W W f f w f 4 5 i.SXSXSXSXSX",
"SXK.).).~.).G.SXSXSX5 #.@.0 q F H t.t.t.j J H K V W O.V C C V r 5.0 E 0 Q Z *.Q W B W E q R B Q V V A w :.w >.v l 4 : SXSXSXSXSX",
"W.(.P.~.(.`.!.G.SX< t.v O.+.w w V V #.v +.V B V q W +.V C Z d d A r V Q B =.0 $.$.Q Q @.B E R ! q W q e ;.:.<.t h 9 , SXSXSXSXSX",
"J./.!.E./.K.`.{.SXp j f #.r A C E B B +.+.+.W B W *.$.Q A #.J k D G G A x x -.*.*.+.Q Q V C B ! *.=.R q w :.h h h 9 ; SXSXSXSXSX",
"Y.P.(./.Y.'./.{.3 < K f A S S C B B Q $.q R B R *.*.e f g.#X;X&X&X5XOXg.#.O.q Q >.W R W S V Q $.r *.W q A d g g g g 5 , ].SXSXSX",
"D.Y.I.U.U.U._.P.S.1 K W B C %.S A +.V B W R R R W F d.;X*XX O o o o X tX4Xd.S $.O.e ! 0 >.A S A D D G G t K g h h K 5 , SXSXSXSX",
"SXD.I.U.A.Q.U._.P.M H W Q +.V r F #.e W R P ! W S d.2XX O o @ @ # @ % o X 2X:.Q q W *.>.#.g g.%X@X%XB.l.K s k k g s 4 - SXSXSXSX",
"SXSXG.D.I.Z.A.Q.C.m r.t e +.*.,.f f A W B R B S j 2XX O o   # & @   & % o = L %.Q +.F k f.;X3XoXwXuXiX%X+X>Xk.s g g 5 , SXSXSXSX",
"SXSXSXE.J.I.Z.Z.L.m a #.O.O.r r ;.e W W R %.V D t.&X+ . o @ @ @   % % o . X k.L d.h.B.@XiX-X&XeXsXxXyXgXhXuX@X@Xg.s 5 - ].SXSXSX",
"SXSXSXSXG.V.J.P.D.m r.f #.O.<.V E 0 x W e #.D D j $Xa.+ . o % # # * o O X x.b.j.2XoX+Xv.-XyXxXqX9XcXvX&XuX3X#Xf.@Xk.u > SXSXSXSX",
"SXSXSXSXSXSXV.V.3 s.a v #.f r W 0 ! R *.O.f g s j $X-Xp.p.X O . o o X p.p.m.&XgXkXkXlX&XyXpXMXMX9X1XlXkX4Xb.z.3X@X+X, SXSXSXSXSX",
"SXSXSXSXSXSXSXSXSX1 J O.+.>.e O.O.W r V e F d J j.c.:XyXyXm.a.m.p.p.p.xXcXaXkXlX=XyXuXiXxXcXxXxXxXxXkXeX=X5Xv.f.+X5X< SXSXSXSXSX",
"SXSXSXSXSXSXSXSXSX> g O.*.q W V F d F d s l.k.6XiXkX&X=XhX:XgX&X,XhX1XeXxXxXxX=XkXkXkXeXxXxXxXxXxXxX9X9X=Xx.+X$Xb.x.1 SXSXSXSXSX",
"SXSXSXSXSXSXSXSXSXn 5 f e Q +.A K H k.+X2X&XhXhXkX=XyXkXuXkX:X;XhXgXhX<XeXxXxXxXwX0XeXkXkX*XvXlXeXxXxX0X=X5X+X+X2X: i.SXSXSXSXSX",
"SXSXSXSXSXSXSXSXSXSXy k d A A D f.$XgX&X=XcXtX9XNXpXkX=XlXaXkX:X4X&XgXkX=X9XsXxXcXpX9XrXvXlXlXkXhXyX=XkX:Xc.oXoX&X: SXSXSXSXSXSX",
"SXSXSXSXSXSXSXSXSXSXSX- j s k.#X2X4X<XkXxXdXNXzXtXBXcXxXpXNXrXpX9XxXxX0X=XlXrXzXnXbXzXMX9XxXcX-X,XoX&X5Xz.f.z.4X< SXSXSXSXSXSXSX",
"SXSXSXSXSXSXSXSXSXSXSX< c.+XmXlX&X&XkXxXNXxXMXMXzXBXMXNXxXMXxXNXxXrXaXxXlX*XvXNXbXvXNXMXxXpXkXhX7Xz.;XOX#X%Xz.x.1 SXSXSXSXSXSXSX",
"SXSXSXSXSXSXSXSXSXSXSX].> kXlXvXkX<X=XkXkXxXrXpXxXxXzXzXxX9XMXdXrXqXxXxXzXNXdXxX-X-XkXzXxXNXXXlXgX$Xz.+X@X+X;X, u.SXSXSXSXSXSXSX",
"SXSXSXSXSXSXSXSXSXSXSXSX< xXNXzXeXkXaXcXxXkXxXrXxXvXcXlXrXxXsXMX0XkXtXzXzXBXfXeX,XhXkXxX9XxXhX,X2Xb.j.j.OX;X&X> SXSXSXSXSXSXSXSX",
"SXSXSXSXSXSXSXSXSXSXSXSXSX> cX9XxXcXxXXXMXNXpXkXkXyXiX*X=XcXxXxXkX<XcXsXzXqXdXeXhXgXxXMXsX=X6Xj.b.,X&Xn.z.f., SXSXSXSXSXSXSXSXSX",
"SXSXSXSXSXSXSXSXSXSXSXSXSX< 0X0XxXzXtXrXqXsXNXkX=XkX=XyXjXeXcXaXhX<X-XxXxXxXxXxX&XhXxXMX0X5Xf.z.$X,X&X:Xv.&X> SXSXSXSXSXSXSXSXSX",
"SXSXSXSXSXSXSXSXSXSXSXSXSXAX1 tXxX*XtXxXxXqXaXkXxXxXxX9X*XcXjXkX<XhX=XlXkXkXxXxXkXyXaX=X=Xx.2X2Xj.z.oX4XeX1 8XSXSXSXSXSXSXSXSXSX",
"SXSXSXSXSXSXSXSXSXSXSXSXSXSXSX1 eXuXcXxXxXkXiXkXxXsXsXrXlXlXkXlXaXkXkX=XlXkXxXqX0XyX=XhX5X&X:Xz.j.#Xc.yX1 SXSXSXSXSXSXSXSXSXSXSX",
"SXSXSXSXSXSXSXSXSXSXSXSXSXSXSXSX}.yXkX=X&X&XjXvXpXVXsX0X*XsXsXMXqXVXNXzXzX9XeXm.&X&X4X&X-X;X;X3X+X$X&X> SXSXSXSXSXSXSXSXSXSXSXSX",
"SXSXSXSXSXSXSXSXSXSXSXSXSXSXSXSXSXm.=X4Xx.,XjXcXtXzX0XkXyXyXMXsXNXXXxXxXrXkX4Xy.b.2XoX5X4X;Xc.oX2X&X> SXSXSXSXSXSXSXSXSXSXSXSXSX",
"SXSXSXSXSXSXSXSXSXSXSXSXSXSXSXSXSXAX- x.yXhXeXpXxXqXsXiXc.OXwXkX:Xv.c.4X;X+Xz.z.#X#Xb.v.OX5XoXb.&X> 8XSXSXSXSXSXSXSXSXSXSXSXSXSX",
"SXSXSXSXSXSXSXSXSXSXSXSXSXSXSXSXSXFXAX> *X1XhXlX=XyXwX-Xc.c.hX:Xz.f.3Xf.#X3Xj.%X+X3Xv.OXx.&X2Xa.2 8XSXSXSXSXSXSXSXSXSXSXSXSXSXSX",
"SXSXSXSXSXSXSXSXSXSXSXSXSXSXSXSXSXSXSXSX|.<X,X,XgX;X+Xn.2Xx.2X+X2X$Xj.%X+Xz.;X;X;X4XOXv.4X<X, n SXSXSXSXSXSXSXSXSXSXSXSXSXSXSXSX",
"SXSXSXSXSXSXSXSXSXSXSXSXSXSXSXSXSXSXSXSXSX}.&X+Xz.+X3X+XoXoXb.+XoX2Xb.oX$X;X&X:X:X=X<X<X: n SXSXSXSXSXSXSXSXSXSXSXSXSXSXSXSXSXSX",
"SXSXSXSXSXSXSXSXSXSXSXSXSXSXSXSXSXSXSXSXSXAXm.x.;X;X:X&X$Xj.#Xb.&X4X;Xb.oX+Xx.:X=X=Xn n GXSXSXSXSXSXSXSXSXSXSXSXSXSXSXSXSXSXSXSX",
"SXSXSXSXSXSXSXSXSXSXSXSXSXSXSXSXSXSXSXSXSXSXAXSX< < *X4Xf.j.z.+X5XOX&Xc.oX6X&X=X> u.SXSXSXSXSXSXSXSXSXSXSXSXSXSXSXSXSXSXSXSXSXSX",
"SXSXSXSXSXSXSXSXSXSXSXSXSXSXSXSXSXSXSXSXSXSXSXSXSXSX}.> - M.B.$X+X+X5X:X;Xm. X> 8XSXSXSXSXSXSXSXSXSXSXSXSXSXSXSXSXSXSXSXSXSXSXSX",
"SXSXSXSXSXSXSXSXSXSXSXSXSXSXSXSXSXSXSXSXSXSXSXSXSXSXSXSXSX: m.x.- , ; < |.SXSX8XSXSXSXSXSXSXSXSXSXSXSXSXSXSXSXSXSXSXSXSXSXSXSXSX",
"SXSXSXSXSXSXSXSXSXSXSXSXSXSXSXSXSXSXSXSXSXSXSXSXSXSXSXSXSX[.SXSXSX[.SXSXSXSXSXSXSXSXSXSXSXSXSXSXSXSXSXSXSXSXSXSXSXSXSXSXSXSXSXSX",
"SXSXSXSXSXSXSXSXSXSXSXSXSXSXSXSXSXSXSXSXSXSXSXSXSXSXSXSXSXSXSXSXSXSXSXSXSXSXSXSXSXSXSXSXSXSXSXSXSXSXSXSXSXSXSXSXSXSXSXSXSXSXSXSX",
"SXSXSXSXSXSXSXSXSXSXSXSXSXSXSXSXSXSXSXSXSXSXSXSXSXSXSXSXSXSXSXSXSXSXSXSXSXSXSXSXSXSXSXSXSXSXSXSXSXSXSXSXSXSXSXSXSXSXSXSXSXSXSXSX",
"SXSXSXSXSXSXSXSXSXSXSXSXSXSXSXSXSXSXSXSXSXSXSXSXSXSXSXSXSXSXSXSXSXSXSXSXSXSXSXSXSXSXSXSXSXSXSXSXSXSXSXSXSXSXSXSXSXSXSXSXSXSXSXSX"
};
