/* XPM */
static char *rcp48766368053633918[] = {
/* columns rows colors chars-per-pixel */
"64 64 160 2 ",
"   c #050419",
".  c #08081D",
"X  c #1E2238",
"o  c #252B41",
"O  c #2B2F45",
"+  c #3C546E",
"@  c #3E5671",
"#  c #3E5B7A",
"$  c #445169",
"%  c #405770",
"&  c #425973",
"*  c #4A5870",
"=  c #425D7C",
"-  c #485E78",
";  c #4C6177",
":  c #46607B",
">  c #4C637C",
",  c #52657B",
"<  c #56697F",
"1  c #466380",
"2  c #4B6682",
"3  c #4D6986",
"4  c #4F6B89",
"5  c #526982",
"6  c #5A6E85",
"7  c #526D8A",
"8  c #596F88",
"9  c #5D7186",
"0  c #56718E",
"q  c #5A728B",
"w  c #577391",
"e  c #597593",
"r  c #5E7996",
"t  c #5E7A98",
"y  c #627487",
"u  c #637589",
"i  c #65788D",
"p  c #697B8F",
"a  c #637C96",
"s  c #6B7D91",
"d  c #637D9A",
"f  c #6F8194",
"g  c #66819D",
"h  c #6A839E",
"j  c #738496",
"k  c #70879F",
"l  c #78889A",
"z  c #6B86A1",
"x  c #6E8AA6",
"c  c #758BA3",
"v  c #7A8EA4",
"b  c #758FAA",
"n  c #788FA9",
"m  c #7E91A5",
"M  c #7691AD",
"N  c #7A93AC",
"B  c #7B96B2",
"V  c #7E99B5",
"C  c #8493A3",
"Z  c #8E9AA7",
"A  c #8197AF",
"S  c #8799AC",
"D  c #8D9DAD",
"F  c #849CB6",
"G  c #8F9FB1",
"H  c #839EBA",
"J  c #889FB8",
"K  c #95A1AD",
"L  c #86A1BD",
"P  c #88A3BE",
"I  c #97A3B0",
"U  c #9CA7B4",
"Y  c #93A6BA",
"T  c #9DACBC",
"R  c #A1ACB7",
"E  c #A5AEB9",
"W  c #A3B1BF",
"Q  c #AAB3BD",
"!  c #8CA6C1",
"~  c #8FA9C2",
"^  c #92ABC4",
"/  c #99AEC5",
"(  c #8ca9ff",
")  c #8ca9ff",
"_  c #AAB6C3",
"`  c #ACB9C6",
"'  c #A1B6CC",
"]  c #A4B9CE",
"[  c #B5BDC6",
"{  c #B2BDC9",
"}  c #A6BAD0",
"|  c #ABBED3",
" . c #B7C1CD",
".. c #BCC3CC",
"X. c #AEC1D5",
"o. c #B0C2D7",
"O. c #BDC6D1",
"+. c #BFC9D5",
"@. c #B5C7DB",
"#. c #B7C8DC",
"$. c #BBCCDF",
"%. c #BDCEE1",
"&. c #C3CCD6",
"*. c #C4CDD6",
"=. c #C5CDD6",
"-. c #C3CCD5",
";. c #CBD1D7",
":. c #C9D0D9",
">. c #C9D1D9",
",. c #CBD2D9",
"<. c #C9D1DA",
"1. c #CCD3DB",
"2. c #CCD2D8",
"3. c #CDD4DC",
"4. c #CED5DC",
"5. c #CED5DD",
"6. c #CFD6DD",
"7. c #CFD6DE",
"8. c #CED4DA",
"9. c #D0D6DE",
"0. c #D2D6DC",
"q. c #D4DADE",
"w. c #C0D0E3",
"e. c #C2D2E4",
"r. c #C5D5E7",
"t. c #C7D7E9",
"y. c #C8D7E9",
"u. c #C9D8EA",
"i. c #C9D9EA",
"p. c #CBDAEB",
"a. c #CBDBEC",
"s. c #CDDCED",
"d. c #CFDDEE",
"f. c #D5DBE2",
"g. c #D7DDE3",
"h. c #D7DCE1",
"j. c #DADEE3",
"k. c #DDE1E5",
"l. c #E0E3E7",
"z. c #E2E6EA",
"x. c #E2E5E9",
"c. c #E6E9EB",
"v. c #E6EAED",
"b. c #E8ECEF",
"n. c #EAECEE",
"m. c #EDEFF2",
"M. c #ECEEF0",
"N. c #EFF1F4",
"B. c #EFF1F3",
"V. c #F0F2F4",
"C. c #F3F5F7",
"Z. c #F1F3F5",
"A. c #F7F8F9",
"S. c #F7F8FA",
"D. c #F9FAFA",
"F. c #FCFCFD",
"G. c #FDFDFD",
"H. c #FEFEFE",
"J. c #8ca9ff",
"K. c #FFFFFF",
/* pixels */
"J.J.J.J.J.J.J.J.J.J.J.J.J.J.J.J.J.J.J.J.J.J.J.J.J.J.J.J.J.J.J.J.J.J.J.J.J.J.J.J.J.J.J.J.J.J.J.J.J.J.J.J.J.J.J.J.J.J.J.J.J.J.J.J.",
"J.J.J.J.J.J.J.J.J.J.J.J.J.J.J.J.J.J.J.J.J.J.J.J.J.J.J.J.J.J.J.J.J.J.J.J.J.J.J.J.J.J.J.J.J.J.J.J.J.J.J.J.J.J.J.J.J.J.J.J.J.J.J.J.",
"J.J.J.J.J.J.J.J.J.J.J.J.J.J.J.J.J.J.J.J.J.J.J.J.J.J.J.J.J.J.J.J.J.J.J.J.J.J.J.J.J.J.J.J.J.J.J.J.J.J.J.J.J.J.J.J.J.J.J.J.J.J.J.J.",
"J.J.J.J.J.J.J.J.J.J.J.J.J.J.J.J.J.J.J.J.J.J.J.J.J.J.J.J.J.J.J.J.J.J.J.J.J.J.J.J.J.J.J.J.J.J.J.J.J.J.J.J.J.J.J.J.J.J.J.J.J.J.J.J.",
"J.J.J.J.J.J.J.J.J.J.J.J.J.J.J.J.J.J.J.J.J.J.J.J.J.J.J.J.J.J.J.J.J.J.J.J.J.J.J.J.J.J.J.J.J.J.J.J.J.J.J.J.J.J.J.J.J.J.J.J.J.J.J.J.",
"J.J.J.J.J.J.J.J.J.J.J.J.J.J.J.J.J.J.J.J.J.J.J.J.J.J.J.J.J.J.J.J.J.J.J.J.J.J.J.J.J.J.J.J.J.J.J.J.J.J.J.J.J.J.J.J.J.J.J.J.J.J.J.J.",
"J.J.J.J.J.J.J.J.J.J.J.J.J.J.J.J.J.J.J.J.J.J.J.J.J.J.J.J.J.J.J.J.J.J.J.J.J.J.J.J.J.J.J.J.J.J.J.J.J.J.J.J.J.J.J.J.J.J.J.J.J.J.J.J.",
"J.J.J.J.J.J.J.J.J.J.J.J.J.J.J.J.J.J.J.J.J.J.J.J.J.J.J.J.J.J.J.J.J.J.J.D.N.Z.Z.Z.N.C.J.J.J.J.J.J.J.J.J.J.J.J.J.J.J.J.J.J.J.J.J.J.",
"J.J.J.J.J.J.J.J.J.J.J.J.J.J.J.J.J.J.J.J.J.J.J.J.J.J.J.J.J.J.J.J.J.z.c.) 7 q q q 0 c M.J.J.J.J.J.J.J.J.J.J.J.J.J.J.J.J.J.J.J.J.J.",
"J.J.J.J.J.J.J.J.J.J.J.J.J.J.J.J.J.J.J.J.J.J.J.J.J.J.J.J.J.J.J.g.O.e 0 N | } } } | P m J.J.J.J.J.J.J.J.J.J.J.J.J.J.J.J.J.J.J.J.J.",
"J.J.J.J.J.J.J.J.J.J.J.J.J.J.J.J.J.J.J.J.J.J.J.J.J.J.J.J.J.J.:.h h | | | | | | | X.Y v J.J.J.J.J.J.J.J.J.J.J.J.J.J.J.J.J.J.J.J.J.",
"J.J.J.J.J.J.J.J.J.J.J.J.J.J.J.J.J.J.J.J.J.J.J.J.J.J.J.J.J.*.c ] X.| | | | | | | | J c J.J.J.J.J.J.J.J.J.J.J.J.J.J.J.J.J.J.J.J.J.",
"J.J.J.J.J.J.J.J.J.J.J.J.J.J.J.J.J.J.J.J.J.J.J.J.J.J.J.J.-.v ' | | | | | | | | | ^ h *.J.J.J.J.J.J.J.J.J.J.J.J.J.J.J.J.J.J.J.J.J.",
"J.J.J.J.J.J.J.J.J.J.J.J.J.J.J.J.J.J.J.J.J.J.J.J.J.J.J.*.v ' X.| | | | | | | | ^ d :.J.J.J.J.J.J.J.J.J.J.J.J.J.J.J.J.J.J.J.J.J.J.",
"J.J.J.J.J.J.J.J.J.J.J.J.J.J.J.J.J.J.J.J.J.J.J.J.J.J.:.c ' X.| | | | | | | | ^ a 3.J.J.J.J.J.J.J.J.J.J.J.J.J.J.J.J.J.J.J.J.J.J.J.",
"J.J.J.J.J.J.J.J.J.J.J.J.J.J.J.J.J.J.J.J.J.J.J.J.J.3.k ] | | | | | | | | | | 8 :.J.J.J.J.J.J.J.J.J.J.J.J.J.J.J.J.J.J.J.J.J.J.J.J.",
"J.J.J.J.J.J.J.J.J.J.J.J.J.J.J.J.J.J.J.J.J.J.b.z.1.g ' } | | | | } } } | | P 9 c.J.J.J.J.J.J.J.J.J.J.J.J.J.J.J.J.J.J.J.J.J.J.J.J.",
"J.J.J.J.J.J.J.J.J.J.J.J.J.J.J.J.J.J.C.3.3.9.c 0 a ! ^ ^ ( | | | ^ ^ ^ ( } 8 1.J.J.J.J.J.J.J.J.J.J.J.J.J.J.J.J.J.J.J.J.J.J.J.J.J.",
"J.J.J.J.J.J.J.J.J.J.J.J.J.J.J.J.-.O.Y w a t / X.| | | | | | | | | | | ' ^ a R J.J.J.J.J.J.J.J.J.J.J.J.J.J.J.J.J.J.J.J.J.J.J.J.J.",
"J.J.J.J.J.J.J.J.J.J.J.J.J.J...T t h N } X.X.| | | | | | | | | | | | | | | ' d ) +.J.J.J.J.J.J.J.J.J.J.J.J.J.J.J.J.J.J.J.J.J.J.J.",
"J.J.J.J.J.J.J.J.J.J.J.J.-.D h n ( X.X.| | | | | | | | | | | | | | | | | | | ' J n T -.J.J.J.J.J.J.J.J.J.J.J.J.J.J.J.J.J.J.J.J.J.",
"J.J.J.J.J.J.J.J.J.J.J.*.h N ( X.| | | | | | | | | | | | | | | | | | | | | | | X.( L N -.J.J.J.J.J.J.J.J.J.J.J.J.J.J.J.J.J.J.J.J.",
"J.J.J.J.J.J.J.J.J.J.:.c ( | | | | | | | | | | | | | | | | | | | | | | | | | | | | | / M -.J.J.J.J.J.J.J.J.J.J.J.J.J.J.J.J.J.J.J.",
"J.J.J.J.J.J.J.J.J.3.k ] X.| | | | | | | | X.X.r.i.i.w.X.| | | | | | | | | | | | | | | ^ h q 3.J.J.J.J.J.J.J.J.J.J.J.J.J.J.J.J.J.",
"J.J.J.J.J.J.J.J.3.h ] | | | | | | | | X.%.a.a.s.s.i.y.t.#.| | | | | | | | | | } } ' P P L H a 3.J.J.J.J.J.J.J.J.J.J.J.J.J.J.J.J.",
"J.J.J.J.J.J.J.3.h ] | | | | | | | | $.s.s.s.t.r.e.| | | | | | | | | | | | } ' ! P P P P P P L a 3.J.J.J.J.J.J.J.J.J.J.J.J.J.J.J.",
"J.J.J.J.J.J.:.g ] | | | | | | | | %.s.i.e.e.o.| | | | | | | | | | | | } ' ^ L P P P P P P P P L d :.J.J.J.J.J.J.J.J.J.J.J.J.J.J.",
"J.J.J.J.J.J.a P | | | | | | | | %.i.%.@.| | | | | | | | | | | | | ( ( ^ L P P P P P P P P P P P V a J.J.J.J.J.J.J.J.J.J.J.J.J.J.",
"J.J.J.J.J. .z ' | | | | | | | | $.#.| | | | | | | | | | | | ( ^ ^ L L L P P P P P P P P P P P P H z  .J.J.J.J.J.J.J.J.J.J.J.J.J.",
"J.J.J.J.J.c J | | | | | | | | | | | | | | | | | | | ] ^ ^ ^ P L L P P P P P P P P P P P P P P P P B 7  .J.J.J.J.J.J.J.J.J.J.J.J.",
"J.J.J.J._ z ' | | | | | | | | | | | | | | | | ^ ^ ^ ! L L L P P P P P P P P P P P P P P P P P P P L x 7 O.J.J.J.J.J.J.J.J.J.J.J.",
"J.J.J.J.D F X.| | | | | | | | L L | | ( ! ! ! P L L P P P P P P P P P P P P P P P P L H L L L L P P P d T J.J.J.J.J.J.J.J.J.J.J.",
"J.J.J.A.S J X.| | | | | | | A X X N ! P P P P P P P P P P P P P P P P P P P P P H H M w e e e t V H ! M 3 { J.J.J.J.J.J.J.J.J.J.",
"J.J.J.) g ] | | | | | | | } O     o P P P P P P P P P P P P P P P P P P P P F B e w w w w w w w w d V H n 2 f.J.J.J.J.J.J.J.J.J.",
"J.J.J.W n X.| | | | | | } ^ $ . . $ P P P P P P P P P P P P P P P P P ! F M t w w w w w w w w w w w w g L e W A.J.J.J.J.J.J.J.J.",
"J.J.J.W n X.| | | | | } ^ L P * * P P P P P P P P P P P P P P P ! H b b d 0 w w w w w w w w w w w w w w g d = c.J.J.J.J.J.J.J.J.",
"J.J.J.W n X.| | | | } ^ L P P ! ! P P P P P P P P P P ! ! ! M x x z w w w w w w w w w w w w w w w w w w w w 4 G A.J.J.J.J.J.J.J.",
"J.J.J.W n ( ^ } | } ~ L P P P P P P P P P P P P H z z e > 2 & @ @ @ @ 1 w w w w w w w w w w w w w w w w w w w 1 Z.J.J.J.J.J.J.J.",
"J.J.J.W z ( ] | } ~ L P P P P P P P P L L L z d d w w 7 3 + Q 9.8.8.9.D + % % 7 w w w w w w w w w w w w w w w 7 v A.J.J.J.J.J.J.",
"J.J.*.d ^ | | | ] P P P P P P P L L L b t t w w w w w w w & *.J.J.J.J.C.l.z.k.9 & ; 0 0 w w w w w w w w w w w w 7 v Z.Z.Z.F.J.J.",
"J.J.` c X.| | | ! P P P P P P L g e e w w w w w w w w w w 0 > ;.z.v.J.J.J.J.J.C.Z.1., 5 0 w w w w w w w w w w w w 7 2 3 1 { c.J.",
"J.{ c | | | | ' P P P P P P ! V z 7 w w w w w w w w w w w w 0 & + u z.J.J.J.J.J.J.J.J.[ 2 0 w w w w w w w w w w w 7 1 7 w 3 2 O.",
"` c | | | | | ! P P P P ! V z 2 j s 2 7 w w w w w w w w w w w w w 7 i k.J.J.J.J.J.J.J.J.[ 5 0 w w w w w w w w w w w 7 3 w w w # ",
"2 | | | | | | ! P P ! H h 2 l K J.v.Z s : 7 w w w w w w w w w w w w 2 C J.J.J.J.J.J.J.J.J.[ 2 0 w w w w w w w w w w w w w 4 2 S ",
"2 } | | | | | ! P H g 2 j E B.J.J.J.J.j.R u & 0 w w w w w w w w w 7 9 8.J.J.J.J.J.J.J.J.J.J.[ 5 0 w w w w w w w w w w 3 & C ` A.",
"2 } | | | | ( P H t i ..z.J.J.J.J.J.J.J.J.9.[ > @ @ @ @ @ @ @ @ @ 6 0.J.J.J.J.J.J.J.J.J.J.J.J., 0 w w w w w w w w w 3 j ..n.J.J.",
"2 } | | | | ~ H t 9 z.J.J.J.J.J.J.J.J.J.J.J.J.q.8.8.8.8.8.8.8.8.8.j.J.J.J.J.J.J.J.J.J.J.J.J.D.< 7 w w w w w w w w 7 s b.J.J.J.J.",
"7 P | | | ^ H t 6 z.J.J.J.J.J.J.J.J.J.J.J.J.J.J.J.J.J.J.J.J.J.J.J.J.J.J.J.J.J.J.J.J.J.J.J.J.J.j.- w w w w w w w 7 p M.J.J.J.J.J.",
"j.d J / L d 7 9 c.J.J.J.J.J.J.J.J.J.J.J.J.J.J.J.J.J.J.J.J.J.J.J.J.J.J.J.J.J.J.J.J.J.J.J.J.J.J.Z.% w w w w w w 7 p B.J.J.J.J.J.J.",
"J.g.y u u y u z.J.J.J.J.J.J.J.J.J.J.J.J.J.J.J.J.J.J.J.J.J.J.J.J.J.J.J.J.J.J.J.J.J.J.J.J.J.J.J.C.p 7 w w w w 7 p B.J.J.J.J.J.J.J.",
"J.J.J.J.J.J.J.J.J.J.J.J.J.J.J.J.J.J.J.J.J.J.J.J.J.J.J.J.J.J.J.J.J.J.J.J.J.J.J.J.J.J.J.J.J.J.J.J.z.% w w w 3 f M.J.J.J.J.J.J.J.J.",
"J.J.J.J.J.J.J.J.J.J.J.J.J.J.J.J.J.J.J.J.J.J.J.J.J.J.J.J.J.J.J.J.J.J.J.J.J.J.J.J.J.J.J.J.J.J.J.J.z.% w w w @ 0.J.J.J.J.J.J.J.J.J.",
"J.J.J.J.J.J.J.J.J.J.J.J.J.J.J.J.J.J.J.J.J.J.J.J.J.J.J.J.J.J.J.J.J.J.J.J.J.J.J.J.J.J.J.J.J.J.J.J.z.% w w 2 C M.J.J.J.J.J.J.J.J.J.",
"J.J.J.J.J.J.J.J.J.J.J.J.J.J.J.J.J.J.J.J.J.J.J.J.J.J.J.J.J.J.J.J.J.J.J.J.J.J.J.J.J.J.J.J.J.J.J.J.z.% w w & ..J.J.J.J.J.J.J.J.J.J.",
"J.J.J.J.J.J.J.J.J.J.J.J.J.J.J.J.J.J.J.J.J.J.J.J.J.J.J.J.J.J.J.J.J.J.J.J.J.J.J.J.J.J.J.J.J.J.J.J.z.% w w & ..J.J.J.J.J.J.J.J.J.J.",
"J.J.J.J.J.J.J.J.J.J.J.J.J.J.J.J.J.J.J.J.J.J.J.J.J.J.J.J.J.J.J.J.J.J.J.J.J.J.J.J.J.J.J.J.J.J.J.J.z.; 0 > U D.J.J.J.J.J.J.J.J.J.J.",
"J.J.J.J.J.J.J.J.J.J.J.J.J.J.J.J.J.J.J.J.J.J.J.J.J.J.J.J.J.J.J.J.J.J.J.J.J.J.J.J.J.J.J.J.J.J.J.J.J.1.; I J.J.J.J.J.J.J.J.J.J.J.J.",
"J.J.J.J.J.J.J.J.J.J.J.J.J.J.J.J.J.J.J.J.J.J.J.J.J.J.J.J.J.J.J.J.J.J.J.J.J.J.J.J.J.J.J.J.J.J.J.J.J.J.D.F.J.J.J.J.J.J.J.J.J.J.J.J.",
"J.J.J.J.J.J.J.J.J.J.J.J.J.J.J.J.J.J.J.J.J.J.J.J.J.J.J.J.J.J.J.J.J.J.J.J.J.J.J.J.J.J.J.J.J.J.J.J.J.J.J.J.J.J.J.J.J.J.J.J.J.J.J.J.",
"J.J.J.J.J.J.J.J.J.J.J.J.J.J.J.J.J.J.J.J.J.J.J.J.J.J.J.J.J.J.J.J.J.J.J.J.J.J.J.J.J.J.J.J.J.J.J.J.J.J.J.J.J.J.J.J.J.J.J.J.J.J.J.J.",
"J.J.J.J.J.J.J.J.J.J.J.J.J.J.J.J.J.J.J.J.J.J.J.J.J.J.J.J.J.J.J.J.J.J.J.J.J.J.J.J.J.J.J.J.J.J.J.J.J.J.J.J.J.J.J.J.J.J.J.J.J.J.J.J.",
"J.J.J.J.J.J.J.J.J.J.J.J.J.J.J.J.J.J.J.J.J.J.J.J.J.J.J.J.J.J.J.J.J.J.J.J.J.J.J.J.J.J.J.J.J.J.J.J.J.J.J.J.J.J.J.J.J.J.J.J.J.J.J.J.",
"J.J.J.J.J.J.J.J.J.J.J.J.J.J.J.J.J.J.J.J.J.J.J.J.J.J.J.J.J.J.J.J.J.J.J.J.J.J.J.J.J.J.J.J.J.J.J.J.J.J.J.J.J.J.J.J.J.J.J.J.J.J.J.J.",
"J.J.J.J.J.J.J.J.J.J.J.J.J.J.J.J.J.J.J.J.J.J.J.J.J.J.J.J.J.J.J.J.J.J.J.J.J.J.J.J.J.J.J.J.J.J.J.J.J.J.J.J.J.J.J.J.J.J.J.J.J.J.J.J."
};
