/* XPM */
static char *rcp63444344084016849[] = {
/* columns rows colors chars-per-pixel */
"72 72 8 1 ",
"  c #07071C",
". c #324962",
"X c #3A5776",
"o c #577391",
"O c #88A3BE",
"+ c #ABBED3",
"@ c #CDDCED",
"# c white",
/* pixels */
"########################################################################",
"########################################################################",
"########################################################################",
"########################################################################",
"########################################################################",
"########################################################################",
"########################################################################",
"########################################################################",
"########################################################################",
"########################################XXXXXXX#########################",
"#####################################XXX+++++++X########################",
"###################################XX++++++++++X########################",
"##################################X++++++++++++X########################",
"#################################X++++++++++++OX########################",
"################################X++++++++++++OX#########################",
"###############################X++++++++++++OX##########################",
"##############################X++++++++++++OX###########################",
"#############################X+++++++++++++.############################",
"############################X+++++++++++++O.############################",
"#########################XXXOOOO++++OOOO++.#############################",
"#####################XXXX+++++++++++++++OO.#############################",
"##################XXXO++++++++++++++++++++O.############################",
"################XXO++++++++++++++++++++++++Ooo##########################",
"##############XXO++++++++++++++++++++++++++++Ooo########################",
"#############XO++++++++++++++++++++++++++++++++Oo#######################",
"############X+++++++++++++++++++++++++++++++++++Oo######################",
"###########X++++++++++++++@@@@+++++++++++++++++++OXX####################",
"##########X++++++++++++@@@@@@@@@+++++++++++++++OOOOOX###################",
"#########X+++++++++++@@@@@@@++++++++++++++++OOOOOOOOOX##################",
"########X+++++++++++@@@@@+++++++++++++++++OOOOOOOOOOOOX#################",
"#######XO++++++++++@@@++++++++++++++++++OOOOOOOOOOOOOOOX################",
"#######X++++++++++@@+++++++++++++++++OOOOOOOOOOOOOOOOOOX################",
"######XO++++++++++++++++++++++++++OOOOOOOOOOOOOOOOOOOOOOX###############",
"######X+++++++++++++++++++++++OOOOOOOOOOOOOOOOOOOOOOOOOOoX##############",
"#####XO+++++++++++++++++++OOOOOOOOOOOOOOOOOOOOOOOOOOOOOOOoX#############",
"#####X+++++++++++OO+++OOOOOOOOOOOOOOOOOOOOOOOOOOOOOOOOOOOOX#############",
"#####X++++++++++O  OOOOOOOOOOOOOOOOOOOOOOOOOOOOOooooooOOOOoX############",
"####XO++++++++++    OOOOOOOOOOOOOOOOOOOOOOOOOoooooooooooOOOoX###########",
"####X++++++++++O    OOOOOOOOOOOOOOOOOOOOOOOoooooooooooooooOOX###########",
"####X+++++++++OOO  OOOOOOOOOOOOOOOOOOOOOOooooooooooooooooooOoX##########",
"####X++++++++OOOOOOOOOOOOOOOOOOOOOOOOOoooooooooooooooooooooooX##########",
"####X+++++++OOOOOOOOOOOOOOOOOOOOOOooooooooooooooooooooooooooooX#########",
"####X+OO+++OOOOOOOOOOOOOOOOOooo.........ooooooooooooooooooooooX#########",
"####XO++++OOOOOOOOOOOOOOOoooooooo.######....oooooooooooooooooooX########",
"###XO+++++OOOOOOOOOOOOooooooooooo.##########...oooooooooooooooooX#######",
"###X+++++OOOOOOOOOoooooooooooooooo.############..ooooooooooooooooXXXX###",
"##X++++++OOOOOOOOOOoooooooooooooooo...###########.oooooooooooooooXoooXX#",
"#X++++++OOOOOOOOOo..oooooooooooooooooo.###########.oooooooooooooooXooooX",
"X+++++++OOOOOOOo..##..ooooooooooooooooo.###########.oooooooooooooooooooX",
"X+++++++OOOOOo..######..ooooooooooooooo.############.ooooooooooooooooXX#",
"X+++++++OOOo..##########..oooooooooooo.##############.ooooooooooooo..###",
"X++++++OOOo.##############............###############.oooooooooooo.#####",
"X++++++OOo.##########################################.ooooooooooo.######",
"XO++++OOo.############################################.ooooooooo.#######",
"#XO++Ooo.#############################################.oooooooo.########",
"##......##############################################.ooooooo.#########",
"#######################################################.ooooo.##########",
"#######################################################.oooo.###########",
"#######################################################.oooo.###########",
"#######################################################.ooo.############",
"#######################################################.ooo.############",
"#######################################################.ooo.############",
"#######################################################.oo.#############",
"########################################################..##############",
"########################################################################",
"########################################################################",
"########################################################################",
"########################################################################",
"########################################################################",
"########################################################################",
"########################################################################",
"########################################################################"
};
