/* XPM */
static char *rcp7166524084047366[] = {
/* columns rows colors chars-per-pixel */
"64 64 11 1 ",
"  c #5A6D41",
". c #525D39",
"X c #6E6D6D",
"o c gray38",
"O c #888788",
"+ c #627941",
"@ c #738552",
"# c gray65",
"$ c gray71",
"% c #7A8F55",
"& c gray32",
/* pixels */
" ..  ..XoXXOOOXo... ++  +@++ .. ++@@+   ..  oXO#O#######$#OOXO@@",
"+  .  ..XO##O#OXX. ++ +  +@ .. ++@@%@@+  ...XXoO######O#$$#OO@@+",
"@+   .XO#######OX@. + . + .. +@@@%%%%@@@++ . XXoO#O##O#$$#OOO@+@",
"@+ +..%##$$$##OOOO....   ..   +@%%%@@%@++@@ . XXXOOO#$$##OOXOX++",
"+@+ . +%%$$$$O#OO#O..  ..  +++  @%%%@+@+@@XX. .oXoO###OOOOOOXOO+",
" + . +%%$######O##OO......  @  +@@%%%%+@ +OXo.. oXoXO##OOXOXoXO.",
"  .  %$#########O##OX...  +@@%%@%%%%%@@+ XOOXo.. XoOXOOXXXooXOOo",
". . $$$$####O###OO#.  .   @%@@%%@%%@@++ OXXOXo .. &oOXXOXooXOOXX",
"o..##$####OO###OO#OX.  + @%@@+%@%%@%+   OXOXXX + . oXoOOOOXOOXXX",
"X.X#$####OO##OOOOOXo&.. ++@@++@@%@O@+ # XOOXoX+   ..oXXoOOOXXooX",
"oXo####O###OOOXOXXoXoo.. @+@@++@@@##  OXOOXo  @++  .. ooXX&&ooXo",
"oooO##OOOOOOOXOOOXXoo . +@++@+ +@XO# OOOXOo . +@++  ... o&&oXooX",
"o&ooOO##OOXOOOOXXXo& .  O#+@+  @+XXOOXOXXX .   @@+++  ..   &o&&o",
"oo&oXOOOXXOOOXXXX+ ..  XOOX@+  +@OXOXOXXOo.. + +@@@++.   .     &",
".ooXoXOOOXooXXoo .. oX&oOXXo    XOOXoXOOXo . ++ %@%@@++ ...    .",
". ..ooXXoo&Xo&@+.. XXooXXOXX +  OOXoXOOXoXO   + %%@@++++  ..++  ",
" ..oo&oXX&o...+@@OOXXXo&&oOX++ +XOOOXXXoXO#+  @++%%%@@+++++  ++ ",
"..oX&ooo ....+@##$$#OOXo&&XoX++ OOOXooXOO#$@+ @++@%%%@@+++ +    ",
"oXXoo&& . +@@##$$$$$##OXo&o&o +OOXXooXO#$$$#@ @@++%@@++@ ++++  o",
"XXooXX . @@@%%$$$###$O#Ooo&oX  XXXo&oO#$$O#$@+@#@+@@++++   + &oo",
"##OXXo .@@%%%%%#$$####O#OXoo&o XXo&oO##OO###@@#O@@#+@++ + . &oXO",
"$$$#O ..+%%@@%@%########OOXoo&&&oXooXOOOOOO##@##@#OO@@+O+ ..XO#$",
"#$$$# .. +@%@@++@##O#####OXXXo&oo&oXOXO#OO##O@#@##OO++OX ..XO#$#",
"####$#.. +++@@@@+O#OO#O##OOXoXoo&&&oXOOO###OOOO#OOOXO+XoX.oO####",
"####O# ..+ @@++  +OO#OOO#OOXXoo&o&  ..  O###O#OOOOXXXoXXo&XO$###",
"##O##OO .  + +  +#####XXOOOXXXoo .... ... O####OOOOXoXoX&oO#$###",
"OO###OXX..  +++.#O##OXXOXOXXXoX.. ..   ... OO###OXooXXXXooO##$##",
"O###OOOXo  ....OO#O##OOOOOXXoo  .. @++..  . OOOOXooXOXXoo&X#O#OO",
"OOXOOOOXXoo +  ++OOOOOOXOXoXX ..  @++@@+++ ..oXXoXOXXOoX&&oO###O",
"#OOXOOXoXX++  ..  OXOXXXXXXo ..  +%+@@%@+   ..XXOOXXOXOo&ooXO###",
"O##OOXoo+ ....  ...+XOXXoXX . .+%@%@@%%@+++  ..oXOXOOOO&o&ooXXOO",
"XOOXXoo ....++   .  ++ooXXo.. +@%%@@%%@@@@++.  .XXOOOO&&ooXooXXo",
"XoXXoX.. +@%%@@%+ ...  .oo..  @@@%@+@%+@@++@@++ . XOOoX&&XoXXooX",
"oXX.. . +%%%@@%%%@  ..  .X&. +@#@@+##@@+@ @@@@ ... ooooo&&ooXXoo",
"X..  .  %%@@@%@%%%@   .. &&o++$#+@###@+  O@@+@. + . oXo ..&&&oXX",
"..  +.+ %%%@@@@%@@  +. .. XoO+###+###O  O#+@++ ++ . Xo .....XooX",
". .++ +@%@@@@++@@ ++@+@@ .oXX##O###OOXOO#   @+++ +.  ..    ..Xoo",
" + + ++@@%+@++@@+++@@@+   .&XO##OOO#OOXO   +++++   . . +  . ..Xo",
"o++X  @+@@+++@+@++@@+  + ..ooXO##OXOXX+  +++ ++  . .. ++     ..X",
"OoXX  ++@+++ +++++++@+   .X&oooOOOOXXOO++ ++  + .  . ++ ++   . O",
"OOX  + ++++ ++@++++ ....OXXo&&ooXXOOOOXXX+ + + ..   ++ +@+ ++ O#",
"#OX.  ++++++  +@  ....XoXXoXXoXo&&oXOOOXXoo +  ...  +  +@ +@@###",
"#OOX...  ++++    ....o&oo&  . XXo&&oXXoooo ++  . . ++ +@+ @@OO##",
"#OOoX.  ++     .. ...Xoo+ .. + .OXXooXXooX +  ..  +  +@@++#OO##$",
"OXOXoo..  .. .. XX ...X ...++@%%@+OOXooXooo + .+ ++ ##+@@####$$#",
"OOXXXo ... X.. ++XX ....  +@%%@%%@+ #OXXXoX. .  ++#O###@@#$$###O",
"OXXooXX .oXX ....  .    ++@%%@%@@%@+ #OXXXo&.. +oXO###O@$$$##OOO",
"XOXXooo  .XOOX  ...  +   @%%@+@@@@@@@+#OXo&&&.oXooXO###O##OOOOXO",
"OXooXX. + %@%@++   .. + +%%%@++@@+@+@@+#OXoXo&XoXXoXOOOOOOOOXOXX",
"OooX.. + @@%%@@++   ..++@%@%++++@++#@@@##XXXXoo..oXOXOOXOOXXOXXO",
"XXX.   +@@%%@@@+#OXo . +%%@@+@++++##+@O##OXoXX....oXOXOOXXXOXXOO",
"Xo.  ++++@@%@@+@##Ooo .@%@@@@@+@+@OOX+OO#OXXooX. ....oXOOXOOOOOX",
"o.. +@%@+++#@@+@OOOXoo. @%@@+@OO@@OOOXXOOOXooXo .   ...ooXXOOXXo",
"X. .%%@+@+@##@@O#OOOXo .@%@@@+OXX@XOXXOOOOXXXooo++ ++ ..o&ooXooo",
"..++@%%@@@###+@XOXOOoX . @@+@XoooXOOOOOXOOXooXo& ++ ++oooo&&oXo.",
". @+@@@#######+OXXOXXX..  @++oXoXOOOOXXOOXooooo@++@+XooXo&&  +..",
" +@@@####O###OOOXOXXo . .. +OooXOOOOXXOXXXXX&&++@+@OoXXo&+ ++  .",
".@@++@#O+##OOOOXoXXoo.Xo . .oXoXXXOOOXXXooX&&oXO@@$##Ooo++++  ..",
"..@@@+++OOOOOXXoXOooXXo&& ..ooXXoXXXooXoXo&ooO##$@$$$##OXo+ ....",
"  #O@@+##XOOOOXOOooXoXXo. ..XXoXXooXXooXXXooO##$$$##$$$#OOX+ ...",
".oOXO#OOOXXOXXOOoXoo&o++   . XXXooXoooXXooXXO#$######$$$#OOoo  .",
" .XOXOOOXoXoo..oXoo .. ++ ... XoXX&&o+ oXooXX#O#######$$$#OOXX++",
"++ .XXooXoooXo..  ... .. + ....  &&++ . XXXoXO######$$###OOOOoX ",
"+ ....XoooXXXXoo.  .   ++++   .... + ... XXooX#O#######$#O#OXooo"
};
